<svg xmlns="http://www.w3.org/2000/svg" xmlns:xlink="http://www.w3.org/1999/xlink" width="500" zoomAndPan="magnify" viewBox="0 0 375 374.999991" height="500" preserveAspectRatio="xMidYMid meet" version="1.0"><defs><clipPath id="9d3d0734b9"><path d="M 55.210938 55.210938 L 319.785156 55.210938 L 319.785156 319.785156 L 55.210938 319.785156 Z M 55.210938 55.210938 " clip-rule="nonzero"/></clipPath><clipPath id="ddd05fb225"><path d="M 187.5 55.210938 C 114.4375 55.210938 55.210938 114.4375 55.210938 187.5 C 55.210938 260.558594 114.4375 319.785156 187.5 319.785156 C 260.558594 319.785156 319.785156 260.558594 319.785156 187.5 C 319.785156 114.4375 260.558594 55.210938 187.5 55.210938 Z M 187.5 55.210938 " clip-rule="nonzero"/></clipPath><clipPath id="b5d89e6182"><path d="M 123 186 L 181 186 L 181 243.71875 L 123 243.71875 Z M 123 186 " clip-rule="nonzero"/></clipPath><clipPath id="d88706a728"><path d="M 166 131.21875 L 207 131.21875 L 207 213 L 166 213 Z M 166 131.21875 " clip-rule="nonzero"/></clipPath><clipPath id="45f1f3eac2"><path d="M 194 186 L 252 186 L 252 243.71875 L 194 243.71875 Z M 194 186 " clip-rule="nonzero"/></clipPath></defs><path fill="#004d3d" d="M 330.078125 59.472656 C 322.742188 46.773438 309.445312 39.671875 295.765625 39.660156 L 295.765625 39.65625 C 282.085938 39.644531 268.785156 32.542969 261.457031 19.84375 C 250.515625 0.894531 226.285156 -5.597656 207.335938 5.34375 L 207.332031 5.347656 L 207.332031 5.335938 C 195.5625 12.117188 180.628906 12.652344 167.984375 5.484375 C 162.089844 2.011719 155.230469 0.0195312 147.902344 0.0195312 C 133.238281 0.0195312 120.4375 7.988281 113.582031 19.832031 L 113.582031 19.828125 C 106.734375 31.667969 93.929688 39.632812 79.269531 39.632812 C 57.386719 39.632812 39.652344 57.371094 39.652344 79.253906 L 39.652344 79.257812 L 39.640625 79.253906 C 39.628906 92.828125 32.628906 106.027344 20.117188 113.394531 C 14.160156 116.757812 8.996094 121.707031 5.324219 128.0625 C -2.007812 140.761719 -1.507812 155.832031 5.324219 167.683594 L 5.320312 167.683594 C 12.148438 179.535156 12.644531 194.605469 5.3125 207.304688 C -5.625 226.253906 0.863281 250.480469 19.816406 261.421875 L 19.816406 261.425781 L 19.808594 261.429688 C 31.652344 268.277344 39.613281 281.082031 39.613281 295.746094 C 39.613281 317.625 57.351562 335.363281 79.230469 335.363281 C 93.894531 335.363281 106.695312 343.328125 113.550781 355.171875 C 120.398438 367.007812 133.203125 374.976562 147.863281 374.976562 C 155.195312 374.976562 162.054688 372.984375 167.945312 369.515625 C 180.585938 362.347656 195.527344 362.882812 207.296875 369.667969 L 207.296875 369.652344 L 207.296875 369.65625 C 226.25 380.597656 250.476562 374.101562 261.421875 355.15625 C 268.753906 342.457031 282.050781 335.351562 295.730469 335.34375 L 295.726562 335.339844 C 309.40625 335.328125 322.707031 328.222656 330.035156 315.527344 C 333.644531 309.273438 335.359375 302.445312 335.351562 295.714844 L 335.355469 295.71875 C 335.371094 282.523438 341.980469 269.679688 353.847656 262.207031 C 360.242188 258.84375 365.792969 253.691406 369.671875 246.972656 C 377.003906 234.269531 376.507812 219.199219 369.675781 207.347656 L 369.679688 207.347656 C 362.851562 195.496094 362.351562 180.425781 369.683594 167.726562 C 380.625 148.777344 374.132812 124.550781 355.183594 113.609375 L 355.179688 113.605469 L 355.1875 113.601562 C 343.441406 106.804688 335.511719 94.152344 335.386719 79.632812 C 335.453125 72.785156 333.746094 65.832031 330.078125 59.472656 " fill-opacity="1" fill-rule="nonzero"/><g clip-path="url(#9d3d0734b9)"><g clip-path="url(#ddd05fb225)"><path stroke-linecap="butt" transform="matrix(0.75, 0, 0, 0.75, 55.21177, 55.211766)" fill="none" stroke-linejoin="miter" d="M 176.384318 -0.00110463 C 78.967645 -0.00110463 -0.00111063 78.967651 -0.00111063 176.384324 C -0.00111063 273.795788 78.967645 352.764544 176.384318 352.764544 C 273.795782 352.764544 352.764538 273.795788 352.764538 176.384324 C 352.764538 78.967651 273.795782 -0.00110463 176.384318 -0.00110463 Z M 176.384318 -0.00110463 " stroke="#f3efee" stroke-width="34" stroke-opacity="1" stroke-miterlimit="4"/></g></g><path fill="#f7faf5" d="M 126.242188 189.253906 C 126.242188 189.253906 176.992188 185.777344 177.339844 240.351562 C 122.765625 240.007812 126.242188 189.253906 126.242188 189.253906 Z M 126.242188 189.253906 " fill-opacity="1" fill-rule="nonzero"/><g clip-path="url(#b5d89e6182)"><path fill="#f7faf5" d="M 180.308594 243.324219 L 177.324219 243.300781 C 159.71875 243.191406 146.027344 238 136.625 227.867188 C 121.90625 212.007812 123.238281 189.980469 123.300781 189.054688 L 123.476562 186.492188 L 126.039062 186.3125 C 126.039062 186.3125 126.761719 186.261719 128.039062 186.261719 C 136.707031 186.261719 179.960938 188.867188 180.292969 240.332031 Z M 129.167969 192.171875 C 129.335938 198.191406 130.832031 212.976562 140.984375 223.898438 C 148.699219 232.183594 159.902344 236.695312 174.316406 237.328125 C 172.542969 196.871094 140.8125 192.421875 129.167969 192.171875 Z M 129.167969 192.171875 " fill-opacity="1" fill-rule="nonzero"/></g><path fill="#f7faf5" d="M 186.695312 135.550781 C 186.695312 135.550781 225.039062 168.980469 186.695312 207.816406 C 148.351562 168.980469 186.695312 135.550781 186.695312 135.550781 Z M 186.695312 135.550781 " fill-opacity="1" fill-rule="nonzero"/><g clip-path="url(#d88706a728)"><path fill="#f7faf5" d="M 186.695312 212.011719 L 184.597656 209.886719 C 172.226562 197.359375 166.214844 184.007812 166.734375 170.199219 C 167.542969 148.574219 184.054688 133.941406 184.757812 133.328125 L 186.695312 131.636719 L 188.632812 133.328125 C 189.335938 133.941406 205.847656 148.574219 206.65625 170.199219 C 207.171875 184.007812 201.164062 197.359375 188.792969 209.886719 Z M 186.695312 139.691406 C 182.546875 144.074219 173.160156 155.582031 172.625 170.472656 C 172.21875 181.785156 176.949219 192.894531 186.695312 203.535156 C 196.4375 192.894531 201.167969 181.785156 200.761719 170.472656 C 200.226562 155.582031 190.84375 144.074219 186.695312 139.691406 Z M 186.695312 139.691406 " fill-opacity="1" fill-rule="nonzero"/></g><path fill="#f7faf5" d="M 248.574219 189.253906 C 248.574219 189.253906 197.828125 185.777344 197.476562 240.351562 C 252.054688 240.007812 248.574219 189.253906 248.574219 189.253906 Z M 248.574219 189.253906 " fill-opacity="1" fill-rule="nonzero"/><g clip-path="url(#45f1f3eac2)"><path fill="#f7faf5" d="M 194.507812 243.324219 L 194.527344 240.332031 C 194.859375 188.867188 238.109375 186.261719 246.777344 186.261719 C 248.054688 186.261719 248.777344 186.3125 248.777344 186.3125 L 251.335938 186.492188 L 251.519531 189.054688 C 251.582031 189.980469 252.910156 212.007812 238.191406 227.867188 C 228.792969 238 215.101562 243.191406 197.492188 243.300781 Z M 245.65625 192.171875 C 234.015625 192.421875 202.273438 196.867188 200.5 237.328125 C 214.941406 236.695312 226.152344 232.167969 233.867188 223.855469 C 244.035156 212.902344 245.503906 198.175781 245.65625 192.171875 Z M 245.65625 192.171875 " fill-opacity="1" fill-rule="nonzero"/></g></svg>