<svg xmlns="http://www.w3.org/2000/svg" xmlns:xlink="http://www.w3.org/1999/xlink" width="500" zoomAndPan="magnify" viewBox="0 0 375 374.999991" height="500" preserveAspectRatio="xMidYMid meet" version="1.0"><defs><g/><clipPath id="1d79f446be"><path d="M 99.425781 57.523438 L 266.675781 57.523438 L 266.675781 224.773438 L 99.425781 224.773438 Z M 99.425781 57.523438 " clip-rule="nonzero"/></clipPath><clipPath id="d053996923"><path d="M 124.09375 82.191406 L 242.300781 82.191406 L 242.300781 200.398438 L 124.09375 200.398438 Z M 124.09375 82.191406 " clip-rule="nonzero"/></clipPath><clipPath id="c08e915bc5"><path d="M 183.195312 82.191406 C 150.554688 82.191406 124.09375 108.652344 124.09375 141.296875 C 124.09375 173.9375 150.554688 200.398438 183.195312 200.398438 C 215.839844 200.398438 242.300781 173.9375 242.300781 141.296875 C 242.300781 108.652344 215.839844 82.191406 183.195312 82.191406 Z M 183.195312 82.191406 " clip-rule="nonzero"/></clipPath><clipPath id="9f7b0a9d4e"><path d="M 154 140 L 180 140 L 180 166.402344 L 154 166.402344 Z M 154 140 " clip-rule="nonzero"/></clipPath><clipPath id="59d574ef1e"><path d="M 173 116.152344 L 192 116.152344 L 192 153 L 173 153 Z M 173 116.152344 " clip-rule="nonzero"/></clipPath><clipPath id="03e2ba31e6"><path d="M 186 140 L 212 140 L 212 166.402344 L 186 166.402344 Z M 186 140 " clip-rule="nonzero"/></clipPath><clipPath id="34a936cdf4"><rect x="0" width="367" y="0" height="103"/></clipPath><clipPath id="1e6dbf28e1"><rect x="0" width="371" y="0" height="31"/></clipPath></defs><g clip-path="url(#1d79f446be)"><path fill="#004d3d" d="M 246.898438 84.09375 C 243.621094 78.421875 237.679688 75.246094 231.566406 75.242188 C 225.457031 75.238281 219.511719 72.0625 216.238281 66.390625 C 211.351562 57.921875 200.523438 55.023438 192.058594 59.910156 L 192.058594 59.914062 L 192.058594 59.90625 C 186.800781 62.9375 180.125 63.175781 174.476562 59.972656 C 171.84375 58.421875 168.777344 57.53125 165.503906 57.53125 C 158.953125 57.53125 153.234375 61.09375 150.171875 66.382812 C 147.113281 71.671875 141.390625 75.230469 134.839844 75.230469 C 125.0625 75.230469 117.140625 83.15625 117.140625 92.933594 L 117.132812 92.933594 C 117.128906 98.996094 114.003906 104.894531 108.414062 108.183594 C 105.75 109.6875 103.441406 111.898438 101.804688 114.738281 C 98.527344 120.414062 98.75 127.144531 101.800781 132.441406 C 104.851562 137.738281 105.074219 144.46875 101.796875 150.144531 C 96.910156 158.609375 99.8125 169.433594 108.277344 174.324219 C 113.566406 177.386719 117.125 183.105469 117.125 189.65625 C 117.125 199.433594 125.046875 207.355469 134.824219 207.355469 C 141.375 207.355469 147.09375 210.917969 150.15625 216.207031 C 153.21875 221.496094 158.9375 225.054688 165.488281 225.054688 C 168.761719 225.054688 171.828125 224.164062 174.460938 222.617188 C 180.109375 219.414062 186.78125 219.652344 192.039062 222.683594 L 192.039062 222.675781 L 192.042969 222.679688 C 200.507812 227.566406 211.332031 224.664062 216.222656 216.199219 C 219.496094 210.527344 225.4375 207.351562 231.550781 207.347656 C 237.660156 207.339844 243.605469 204.167969 246.878906 198.496094 C 248.492188 195.703125 249.257812 192.652344 249.253906 189.640625 L 249.257812 189.644531 C 249.261719 183.75 252.214844 178.011719 257.515625 174.671875 C 260.375 173.167969 262.855469 170.867188 264.585938 167.867188 C 267.863281 162.191406 267.640625 155.457031 264.589844 150.164062 C 261.539062 144.867188 261.316406 138.132812 264.59375 132.460938 C 269.480469 123.992188 266.582031 113.167969 258.113281 108.28125 L 258.117188 108.277344 C 252.867188 105.242188 249.324219 99.589844 249.269531 93.101562 C 249.300781 90.042969 248.535156 86.9375 246.898438 84.09375 " fill-opacity="1" fill-rule="nonzero"/></g><g clip-path="url(#d053996923)"><g clip-path="url(#c08e915bc5)"><path stroke-linecap="butt" transform="matrix(0.75, 0, 0, 0.75, 124.093326, 82.192084)" fill="none" stroke-linejoin="miter" d="M 78.802654 -0.000903937 C 35.281818 -0.000903937 0.000565398 35.280348 0.000565398 78.806393 C 0.000565398 122.327229 35.281818 157.608481 78.802654 157.608481 C 122.328698 157.608481 157.609951 122.327229 157.609951 78.806393 C 157.609951 35.280348 122.328698 -0.000903937 78.802654 -0.000903937 Z M 78.802654 -0.000903937 " stroke="#f3efee" stroke-width="34" stroke-opacity="1" stroke-miterlimit="4"/></g></g><path fill="#f7faf5" d="M 155.828125 142.078125 C 155.828125 142.078125 178.503906 140.527344 178.65625 164.910156 C 154.277344 164.753906 155.828125 142.078125 155.828125 142.078125 Z M 155.828125 142.078125 " fill-opacity="1" fill-rule="nonzero"/><g clip-path="url(#9f7b0a9d4e)"><path fill="#f7faf5" d="M 179.984375 166.234375 L 178.648438 166.226562 C 170.785156 166.175781 164.667969 163.855469 160.46875 159.332031 C 153.894531 152.246094 154.488281 142.402344 154.515625 141.988281 L 154.59375 140.847656 L 155.738281 140.765625 C 155.738281 140.765625 156.0625 140.742188 156.632812 140.742188 C 160.503906 140.742188 179.828125 141.90625 179.976562 164.898438 Z M 157.136719 143.382812 C 157.210938 146.074219 157.878906 152.679688 162.417969 157.554688 C 165.863281 161.257812 170.867188 163.273438 177.308594 163.558594 C 176.515625 145.484375 162.339844 143.496094 157.136719 143.382812 Z M 157.136719 143.382812 " fill-opacity="1" fill-rule="nonzero"/></g><path fill="#f7faf5" d="M 182.835938 118.085938 C 182.835938 118.085938 199.96875 133.019531 182.835938 150.371094 C 165.707031 133.019531 182.835938 118.085938 182.835938 118.085938 Z M 182.835938 118.085938 " fill-opacity="1" fill-rule="nonzero"/><g clip-path="url(#59d574ef1e)"><path fill="#f7faf5" d="M 182.835938 152.246094 L 181.898438 151.296875 C 176.375 145.699219 173.6875 139.734375 173.917969 133.566406 C 174.28125 123.90625 181.65625 117.367188 181.972656 117.09375 L 182.835938 116.339844 L 183.703125 117.09375 C 184.015625 117.367188 191.394531 123.90625 191.753906 133.566406 C 191.984375 139.734375 189.300781 145.699219 183.773438 151.296875 Z M 182.835938 119.9375 C 180.984375 121.894531 176.792969 127.035156 176.550781 133.6875 C 176.371094 138.742188 178.484375 143.707031 182.835938 148.460938 C 187.191406 143.707031 189.304688 138.742188 189.121094 133.6875 C 188.882812 127.035156 184.691406 121.894531 182.835938 119.9375 Z M 182.835938 119.9375 " fill-opacity="1" fill-rule="nonzero"/></g><path fill="#f7faf5" d="M 210.484375 142.078125 C 210.484375 142.078125 187.8125 140.527344 187.65625 164.910156 C 212.039062 164.753906 210.484375 142.078125 210.484375 142.078125 Z M 210.484375 142.078125 " fill-opacity="1" fill-rule="nonzero"/><g clip-path="url(#03e2ba31e6)"><path fill="#f7faf5" d="M 186.328125 166.234375 L 186.335938 164.898438 C 186.484375 141.90625 205.808594 140.742188 209.679688 140.742188 C 210.25 140.742188 210.574219 140.765625 210.574219 140.765625 L 211.714844 140.847656 L 211.796875 141.988281 C 211.828125 142.402344 212.421875 152.242188 205.84375 159.332031 C 201.644531 163.855469 195.527344 166.175781 187.660156 166.226562 Z M 209.179688 143.382812 C 203.976562 143.496094 189.796875 145.480469 189.003906 163.554688 C 195.457031 163.273438 200.464844 161.25 203.914062 157.539062 C 208.453125 152.644531 209.109375 146.066406 209.179688 143.382812 Z M 209.179688 143.382812 " fill-opacity="1" fill-rule="nonzero"/></g><g transform="matrix(1, 0, 0, 1, 8, 226)"><g clip-path="url(#34a936cdf4)"><g fill="#004d3d" fill-opacity="1"><g transform="translate(0.40565, 71.299467)"><g><path d="M 20.421875 0.796875 C 17.472656 0.796875 14.613281 0.363281 11.84375 -0.5 C 9.082031 -1.375 6.785156 -2.632812 4.953125 -4.28125 C 4.421875 -4.769531 3.929688 -5.316406 3.484375 -5.921875 C 3.035156 -6.523438 2.65625 -7.1875 2.34375 -7.90625 C 1.757812 -9.195312 1.46875 -10.554688 1.46875 -11.984375 C 1.46875 -13.410156 1.859375 -14.59375 2.640625 -15.53125 C 3.421875 -16.46875 4.523438 -16.9375 5.953125 -16.9375 C 7.117188 -16.9375 8.210938 -16.585938 9.234375 -15.890625 C 10.265625 -15.203125 11.003906 -13.988281 11.453125 -12.25 C 12.078125 -9.925781 13.054688 -8.238281 14.390625 -7.1875 C 15.734375 -6.144531 17.234375 -5.625 18.890625 -5.625 C 20.492188 -5.625 21.804688 -6.09375 22.828125 -7.03125 C 23.859375 -7.96875 24.375 -9.285156 24.375 -10.984375 C 24.375 -13.035156 23.648438 -14.6875 22.203125 -15.9375 C 20.753906 -17.1875 18.84375 -18.210938 16.46875 -19.015625 C 11.601562 -20.710938 8.144531 -22.789062 6.09375 -25.25 C 4.039062 -27.707031 3.015625 -30.898438 3.015625 -34.828125 C 3.015625 -37.234375 3.707031 -39.40625 5.09375 -41.34375 C 6.476562 -43.289062 8.472656 -44.832031 11.078125 -45.96875 C 13.691406 -47.113281 16.804688 -47.6875 20.421875 -47.6875 C 23.054688 -47.6875 25.710938 -47.28125 28.390625 -46.46875 C 31.066406 -45.664062 33.28125 -44.441406 35.03125 -42.796875 C 35.519531 -42.347656 35.953125 -41.878906 36.328125 -41.390625 C 36.710938 -40.898438 37.0625 -40.363281 37.375 -39.78125 C 38 -38.4375 38.3125 -37.03125 38.3125 -35.5625 C 38.3125 -34.351562 37.960938 -33.289062 37.265625 -32.375 C 36.578125 -31.457031 35.539062 -31 34.15625 -31 C 33.175781 -31 32.179688 -31.234375 31.171875 -31.703125 C 30.171875 -32.171875 29.425781 -33.253906 28.9375 -34.953125 C 28.351562 -37.234375 27.425781 -38.875 26.15625 -39.875 C 24.882812 -40.882812 23.46875 -41.390625 21.90625 -41.390625 C 20.519531 -41.390625 19.3125 -41 18.28125 -40.21875 C 17.25 -39.4375 16.734375 -38.332031 16.734375 -36.90625 C 16.734375 -35.25 17.359375 -33.828125 18.609375 -32.640625 C 19.867188 -31.460938 22.148438 -30.382812 25.453125 -29.40625 C 29.242188 -28.28125 32.207031 -26.945312 34.34375 -25.40625 C 36.488281 -23.875 38.007812 -22.132812 38.90625 -20.1875 C 39.800781 -18.25 40.25 -16.097656 40.25 -13.734375 C 40.25 -10.828125 39.429688 -8.28125 37.796875 -6.09375 C 36.171875 -3.90625 33.875 -2.207031 30.90625 -1 C 27.9375 0.195312 24.441406 0.796875 20.421875 0.796875 Z M 20.421875 0.796875 "/></g></g></g><g fill="#004d3d" fill-opacity="1"><g transform="translate(59.41088, 71.299467)"><g><path d="M 3.6875 0.0625 C 2.300781 0.0625 1.394531 -0.191406 0.96875 -0.703125 C 0.539062 -1.210938 0.328125 -1.757812 0.328125 -2.34375 C 0.328125 -2.96875 0.617188 -3.535156 1.203125 -4.046875 C 1.785156 -4.566406 2.429688 -4.984375 3.140625 -5.296875 C 4.347656 -5.785156 5.265625 -6.429688 5.890625 -7.234375 C 6.515625 -8.035156 7.117188 -9.195312 7.703125 -10.71875 C 9.484375 -15.363281 11.265625 -19.992188 13.046875 -24.609375 C 14.835938 -29.234375 16.628906 -33.84375 18.421875 -38.4375 C 18.679688 -39.195312 18.710938 -39.976562 18.515625 -40.78125 C 18.316406 -41.582031 17.90625 -42.140625 17.28125 -42.453125 C 16.789062 -42.722656 16.398438 -43.054688 16.109375 -43.453125 C 15.816406 -43.859375 15.671875 -44.351562 15.671875 -44.9375 C 15.671875 -45.332031 15.867188 -45.820312 16.265625 -46.40625 C 16.671875 -46.988281 17.546875 -47.28125 18.890625 -47.28125 L 24.984375 -47.28125 C 27.390625 -47.28125 29.25 -46.910156 30.5625 -46.171875 C 31.882812 -45.429688 32.867188 -44.546875 33.515625 -43.515625 C 34.160156 -42.492188 34.664062 -41.492188 35.03125 -40.515625 C 37.03125 -35.378906 39.023438 -30.242188 41.015625 -25.109375 C 43.003906 -19.972656 45.003906 -14.835938 47.015625 -9.703125 C 47.410156 -8.679688 47.820312 -7.910156 48.25 -7.390625 C 48.675781 -6.878906 49.332031 -6.378906 50.21875 -5.890625 C 50.664062 -5.671875 51.101562 -5.328125 51.53125 -4.859375 C 51.957031 -4.390625 52.171875 -3.707031 52.171875 -2.8125 C 52.171875 -1.96875 51.9375 -1.34375 51.46875 -0.9375 C 51 -0.53125 50.4375 -0.269531 49.78125 -0.15625 C 49.132812 -0.0507812 48.546875 0 48.015625 0 L 36.15625 0 C 34.019531 0 32.335938 -0.0976562 31.109375 -0.296875 C 29.878906 -0.503906 29.265625 -1.234375 29.265625 -2.484375 C 29.265625 -3.328125 29.644531 -3.992188 30.40625 -4.484375 C 31.207031 -5.066406 31.796875 -5.679688 32.171875 -6.328125 C 32.554688 -6.972656 32.523438 -7.921875 32.078125 -9.171875 L 31.546875 -10.78125 C 31.273438 -11.539062 30.835938 -12.15625 30.234375 -12.625 C 29.628906 -13.09375 28.992188 -13.328125 28.328125 -13.328125 L 17.609375 -13.328125 C 16.710938 -13.328125 16.039062 -13.222656 15.59375 -13.015625 C 15.15625 -12.816406 14.753906 -12.296875 14.390625 -11.453125 L 13.921875 -10.046875 C 13.390625 -8.484375 13.210938 -7.285156 13.390625 -6.453125 C 13.566406 -5.628906 14.125 -5.039062 15.0625 -4.6875 C 15.601562 -4.507812 16.109375 -4.226562 16.578125 -3.84375 C 17.046875 -3.46875 17.28125 -2.945312 17.28125 -2.28125 C 17.28125 -1.289062 16.890625 -0.648438 16.109375 -0.359375 C 15.328125 -0.078125 14.488281 0.0625 13.59375 0.0625 Z M 19.890625 -19.015625 L 26.25 -19.015625 C 26.875 -19.015625 27.429688 -19.160156 27.921875 -19.453125 C 28.410156 -19.742188 28.566406 -20.113281 28.390625 -20.5625 L 24.171875 -33.546875 C 23.953125 -34.304688 23.640625 -34.6875 23.234375 -34.6875 C 22.835938 -34.6875 22.503906 -34.304688 22.234375 -33.546875 L 17.609375 -20.625 C 17.390625 -20 17.566406 -19.570312 18.140625 -19.34375 C 18.722656 -19.125 19.304688 -19.015625 19.890625 -19.015625 Z M 19.890625 -19.015625 "/></g></g></g><g fill="#004d3d" fill-opacity="1"><g transform="translate(128.730194, 71.299467)"><g><path d="M 15.875 0 C 13.769531 0 12.289062 -0.175781 11.4375 -0.53125 C 10.59375 -0.894531 10.171875 -1.566406 10.171875 -2.546875 C 10.171875 -3.171875 10.484375 -3.75 11.109375 -4.28125 C 11.734375 -4.820312 12.296875 -5.25 12.796875 -5.5625 C 14.441406 -6.582031 15.519531 -7.59375 16.03125 -8.59375 C 16.550781 -9.601562 16.8125 -11.003906 16.8125 -12.796875 L 16.8125 -38.78125 C 16.8125 -39.757812 16.664062 -40.414062 16.375 -40.75 C 16.082031 -41.082031 15.625 -41.25 15 -41.25 L 13.390625 -41.25 C 12.140625 -41.25 11.191406 -40.710938 10.546875 -39.640625 C 9.898438 -38.566406 9.085938 -36.914062 8.109375 -34.6875 C 7.296875 -32.851562 6.53125 -31.554688 5.8125 -30.796875 C 5.101562 -30.046875 4.257812 -29.671875 3.28125 -29.671875 C 1.8125 -29.671875 0.90625 -30.21875 0.5625 -31.3125 C 0.226562 -32.40625 0.25 -33.820312 0.625 -35.5625 C 1.007812 -37.300781 1.492188 -39.128906 2.078125 -41.046875 C 2.742188 -43.234375 3.488281 -44.992188 4.3125 -46.328125 C 5.144531 -47.671875 6.03125 -48.34375 6.96875 -48.34375 C 7.632812 -48.34375 8.269531 -48.21875 8.875 -47.96875 C 9.476562 -47.726562 10.171875 -47.484375 10.953125 -47.234375 C 11.734375 -46.992188 12.75 -46.875 14 -46.875 L 32.40625 -46.875 C 34.0625 -46.875 35.289062 -46.992188 36.09375 -47.234375 C 36.894531 -47.484375 37.550781 -47.726562 38.0625 -47.96875 C 38.582031 -48.21875 39.195312 -48.34375 39.90625 -48.34375 C 40.757812 -48.34375 41.539062 -47.828125 42.25 -46.796875 C 42.96875 -45.773438 43.773438 -43.859375 44.671875 -41.046875 C 45.378906 -38.992188 45.921875 -37.097656 46.296875 -35.359375 C 46.679688 -33.617188 46.71875 -32.234375 46.40625 -31.203125 C 46.09375 -30.179688 45.222656 -29.671875 43.796875 -29.671875 C 42.859375 -29.671875 42.007812 -30.035156 41.25 -30.765625 C 40.488281 -31.503906 39.6875 -32.8125 38.84375 -34.6875 C 37.863281 -36.875 37.046875 -38.515625 36.390625 -39.609375 C 35.742188 -40.703125 34.84375 -41.25 33.6875 -41.25 L 32.078125 -41.25 C 31.359375 -41.25 30.851562 -41.082031 30.5625 -40.75 C 30.28125 -40.414062 30.140625 -39.757812 30.140625 -38.78125 L 30.140625 -12.796875 C 30.140625 -11.546875 30.25 -10.503906 30.46875 -9.671875 C 30.695312 -8.847656 31.097656 -8.132812 31.671875 -7.53125 C 32.253906 -6.925781 33.082031 -6.269531 34.15625 -5.5625 C 34.914062 -5.113281 35.539062 -4.664062 36.03125 -4.21875 C 36.519531 -3.769531 36.765625 -3.191406 36.765625 -2.484375 C 36.765625 -1.765625 36.460938 -1.160156 35.859375 -0.671875 C 35.253906 -0.179688 33.90625 0.0625 31.8125 0.0625 C 30.070312 0.0625 28.578125 0.0625 27.328125 0.0625 C 26.078125 0.0625 24.90625 0.0507812 23.8125 0.03125 C 22.71875 0.0078125 21.554688 0 20.328125 0 C 19.097656 0 17.613281 0 15.875 0 Z M 15.875 0 "/></g></g></g><g fill="#004d3d" fill-opacity="1"><g transform="translate(192.490601, 71.299467)"><g><path d="M 26.3125 0.328125 L 26.046875 0.328125 C 24.660156 0.328125 23.390625 -0.0703125 22.234375 -0.875 C 21.078125 -1.675781 20.160156 -2.898438 19.484375 -4.546875 L 6.96875 -35.765625 C 6.382812 -37.328125 5.753906 -38.453125 5.078125 -39.140625 C 4.410156 -39.835938 3.5 -40.429688 2.34375 -40.921875 C 1.757812 -41.179688 1.273438 -41.523438 0.890625 -41.953125 C 0.515625 -42.378906 0.328125 -42.992188 0.328125 -43.796875 C 0.328125 -45.179688 0.984375 -46.039062 2.296875 -46.375 C 3.617188 -46.707031 5.773438 -46.875 8.765625 -46.875 L 18.75 -46.875 C 20.894531 -46.875 22.476562 -46.757812 23.5 -46.53125 C 24.53125 -46.3125 25.210938 -45.988281 25.546875 -45.5625 C 25.878906 -45.144531 26.046875 -44.625 26.046875 -44 C 26.046875 -43.457031 25.84375 -42.941406 25.4375 -42.453125 C 25.039062 -41.960938 24.394531 -41.519531 23.5 -41.125 C 22.519531 -40.71875 21.804688 -40.222656 21.359375 -39.640625 C 20.910156 -39.066406 20.976562 -38 21.5625 -36.4375 L 28.328125 -17.8125 C 28.773438 -16.695312 29.234375 -16.128906 29.703125 -16.109375 C 30.171875 -16.085938 30.601562 -16.632812 31 -17.75 C 32.164062 -21.007812 33.328125 -24.253906 34.484375 -27.484375 C 35.648438 -30.722656 36.8125 -33.972656 37.96875 -37.234375 C 38.414062 -38.523438 38.425781 -39.367188 38 -39.765625 C 37.582031 -40.171875 36.835938 -40.578125 35.765625 -40.984375 C 34.828125 -41.335938 34.175781 -41.757812 33.8125 -42.25 C 33.457031 -42.75 33.28125 -43.285156 33.28125 -43.859375 C 33.28125 -44.929688 33.671875 -45.703125 34.453125 -46.171875 C 35.234375 -46.640625 36.582031 -46.875 38.5 -46.875 C 39.800781 -46.832031 41.273438 -46.8125 42.921875 -46.8125 C 44.578125 -46.8125 46.1875 -46.832031 47.75 -46.875 C 49.039062 -46.875 50.066406 -46.640625 50.828125 -46.171875 C 51.585938 -45.703125 51.96875 -45 51.96875 -44.0625 C 51.96875 -43.21875 51.753906 -42.582031 51.328125 -42.15625 C 50.898438 -41.726562 50.242188 -41.335938 49.359375 -40.984375 C 48.367188 -40.628906 47.53125 -40.140625 46.84375 -39.515625 C 46.15625 -38.890625 45.5 -37.796875 44.875 -36.234375 C 42.8125 -30.960938 40.734375 -25.691406 38.640625 -20.421875 C 36.546875 -15.148438 34.445312 -9.859375 32.34375 -4.546875 C 31.757812 -3.078125 30.921875 -1.894531 29.828125 -1 C 28.734375 -0.113281 27.5625 0.328125 26.3125 0.328125 Z M 26.3125 0.328125 "/></g></g></g><g fill="#004d3d" fill-opacity="1"><g transform="translate(261.608992, 71.299467)"><g><path d="M 13.0625 0 L 6.234375 0 C 4.617188 0 3.488281 -0.175781 2.84375 -0.53125 C 2.195312 -0.894531 1.875 -1.566406 1.875 -2.546875 C 1.875 -3.171875 2.109375 -3.75 2.578125 -4.28125 C 3.046875 -4.820312 3.484375 -5.25 3.890625 -5.5625 C 5.140625 -6.582031 5.960938 -7.59375 6.359375 -8.59375 C 6.765625 -9.601562 6.96875 -11.003906 6.96875 -12.796875 L 6.96875 -34.09375 C 6.96875 -35.914062 6.765625 -37.316406 6.359375 -38.296875 C 5.960938 -39.285156 5.113281 -40.289062 3.8125 -41.3125 C 3.414062 -41.625 2.984375 -42.046875 2.515625 -42.578125 C 2.046875 -43.117188 1.8125 -43.703125 1.8125 -44.328125 C 1.8125 -45.359375 2.132812 -46.039062 2.78125 -46.375 C 3.425781 -46.707031 4.550781 -46.875 6.15625 -46.875 L 12.984375 -46.875 C 13.171875 -46.875 13.328125 -46.875 13.453125 -46.875 C 13.585938 -46.875 13.742188 -46.875 13.921875 -46.875 L 20.765625 -46.875 C 22.367188 -46.875 23.492188 -46.707031 24.140625 -46.375 C 24.785156 -46.039062 25.109375 -45.359375 25.109375 -44.328125 C 25.109375 -43.703125 24.875 -43.132812 24.40625 -42.625 C 23.9375 -42.113281 23.503906 -41.675781 23.109375 -41.3125 C 21.859375 -40.289062 21.03125 -39.285156 20.625 -38.296875 C 20.226562 -37.316406 20.03125 -35.914062 20.03125 -34.09375 L 20.03125 -12.796875 C 20.03125 -11.003906 20.238281 -9.601562 20.65625 -8.59375 C 21.082031 -7.59375 21.921875 -6.582031 23.171875 -5.5625 C 23.578125 -5.25 24.015625 -4.820312 24.484375 -4.28125 C 24.953125 -3.75 25.1875 -3.171875 25.1875 -2.546875 C 25.1875 -1.566406 24.859375 -0.894531 24.203125 -0.53125 C 23.554688 -0.175781 22.429688 0 20.828125 0 L 14 0 C 13.820312 0 13.664062 0 13.53125 0 C 13.394531 0 13.238281 0 13.0625 0 Z M 13.0625 0 "/></g></g></g><g fill="#004d3d" fill-opacity="1"><g transform="translate(305.411004, 71.299467)"><g><path d="M 6.234375 0 C 4.617188 0 3.488281 -0.175781 2.84375 -0.53125 C 2.195312 -0.894531 1.875 -1.566406 1.875 -2.546875 C 1.875 -3.171875 2.109375 -3.75 2.578125 -4.28125 C 3.046875 -4.820312 3.484375 -5.25 3.890625 -5.5625 C 5.140625 -6.582031 5.960938 -7.59375 6.359375 -8.59375 C 6.765625 -9.601562 6.96875 -11.003906 6.96875 -12.796875 L 6.96875 -34.09375 C 6.96875 -35.914062 6.765625 -37.328125 6.359375 -38.328125 C 5.960938 -39.335938 5.113281 -40.332031 3.8125 -41.3125 C 3.414062 -41.625 2.984375 -42.046875 2.515625 -42.578125 C 2.046875 -43.117188 1.8125 -43.703125 1.8125 -44.328125 C 1.8125 -45.359375 2.132812 -46.039062 2.78125 -46.375 C 3.425781 -46.707031 4.550781 -46.875 6.15625 -46.875 L 20.625 -46.875 C 22.007812 -46.875 22.96875 -46.707031 23.5 -46.375 C 24.039062 -46.039062 24.3125 -45.359375 24.3125 -44.328125 C 24.3125 -43.703125 24.117188 -43.132812 23.734375 -42.625 C 23.359375 -42.113281 22.992188 -41.675781 22.640625 -41.3125 C 21.609375 -40.289062 20.914062 -39.285156 20.5625 -38.296875 C 20.207031 -37.316406 20.03125 -35.914062 20.03125 -34.09375 L 20.03125 -29.9375 C 20.03125 -27.96875 20.65625 -27.609375 21.90625 -28.859375 L 28.328125 -35.296875 C 29.753906 -36.722656 30.578125 -37.925781 30.796875 -38.90625 C 31.023438 -39.882812 30.757812 -40.84375 30 -41.78125 C 29.6875 -42.1875 29.40625 -42.597656 29.15625 -43.015625 C 28.914062 -43.441406 28.796875 -43.90625 28.796875 -44.40625 C 28.796875 -45.5625 29.351562 -46.296875 30.46875 -46.609375 C 31.582031 -46.921875 33.234375 -47.078125 35.421875 -47.078125 L 41.71875 -47.078125 C 43.414062 -47.078125 44.84375 -46.910156 46 -46.578125 C 47.164062 -46.242188 47.75 -45.453125 47.75 -44.203125 C 47.75 -43.128906 47.398438 -42.378906 46.703125 -41.953125 C 46.015625 -41.523438 45.222656 -41.203125 44.328125 -40.984375 C 43.660156 -40.847656 43.015625 -40.664062 42.390625 -40.4375 C 41.765625 -40.21875 41.09375 -39.828125 40.375 -39.265625 C 39.664062 -38.710938 38.796875 -37.859375 37.765625 -36.703125 L 35.03125 -33.546875 C 34.71875 -33.148438 34.613281 -32.648438 34.71875 -32.046875 C 34.832031 -31.441406 34.976562 -30.9375 35.15625 -30.53125 L 46.34375 -8.96875 C 46.875 -7.894531 47.507812 -7.125 48.25 -6.65625 C 48.988281 -6.1875 49.757812 -5.796875 50.5625 -5.484375 C 51.851562 -4.992188 52.5 -4.082031 52.5 -2.75 C 52.5 -1.632812 52.0625 -0.894531 51.1875 -0.53125 C 50.320312 -0.175781 49.242188 0 47.953125 0 L 34.015625 0 C 32.941406 0 32.003906 -0.15625 31.203125 -0.46875 C 30.398438 -0.78125 30 -1.472656 30 -2.546875 C 30 -3.304688 30.1875 -3.882812 30.5625 -4.28125 C 30.945312 -4.6875 31.34375 -5.023438 31.75 -5.296875 C 32.375 -5.691406 32.671875 -6.210938 32.640625 -6.859375 C 32.617188 -7.503906 32.296875 -8.429688 31.671875 -9.640625 L 26.515625 -19.625 C 25.941406 -20.78125 25.363281 -21.425781 24.78125 -21.5625 C 24.195312 -21.695312 23.613281 -21.453125 23.03125 -20.828125 L 21.703125 -19.359375 C 21.335938 -18.953125 20.96875 -18.46875 20.59375 -17.90625 C 20.21875 -17.351562 20.03125 -16.609375 20.03125 -15.671875 L 20.03125 -12.796875 C 20.03125 -11.003906 20.21875 -9.601562 20.59375 -8.59375 C 20.96875 -7.59375 21.738281 -6.582031 22.90625 -5.5625 C 23.257812 -5.25 23.660156 -4.820312 24.109375 -4.28125 C 24.554688 -3.75 24.78125 -3.171875 24.78125 -2.546875 C 24.78125 -1.566406 24.476562 -0.894531 23.875 -0.53125 C 23.269531 -0.175781 22.234375 0 20.765625 0 Z M 6.234375 0 "/></g></g></g></g></g><g transform="matrix(1, 0, 0, 1, 4, 302)"><g clip-path="url(#1e6dbf28e1)"><g fill="#004d3d" fill-opacity="1"><g transform="translate(0.831186, 21.163248)"><g><path d="M 1.8125 0 C 1.34375 0 1.015625 -0.0507812 0.828125 -0.15625 C 0.640625 -0.257812 0.546875 -0.453125 0.546875 -0.734375 C 0.546875 -0.921875 0.613281 -1.09375 0.75 -1.25 C 0.882812 -1.40625 1.007812 -1.523438 1.125 -1.609375 C 1.488281 -1.910156 1.726562 -2.207031 1.84375 -2.5 C 1.957031 -2.789062 2.015625 -3.195312 2.015625 -3.71875 L 2.015625 -9.890625 C 2.015625 -10.421875 1.953125 -10.832031 1.828125 -11.125 C 1.710938 -11.414062 1.472656 -11.707031 1.109375 -12 C 0.992188 -12.082031 0.867188 -12.203125 0.734375 -12.359375 C 0.597656 -12.515625 0.53125 -12.6875 0.53125 -12.875 C 0.53125 -13.164062 0.625 -13.359375 0.8125 -13.453125 C 1 -13.554688 1.320312 -13.609375 1.78125 -13.609375 L 6 -13.609375 C 6.46875 -13.609375 6.796875 -13.554688 6.984375 -13.453125 C 7.171875 -13.359375 7.265625 -13.164062 7.265625 -12.875 C 7.265625 -12.6875 7.195312 -12.519531 7.0625 -12.375 C 6.925781 -12.226562 6.800781 -12.101562 6.6875 -12 C 6.320312 -11.695312 6.082031 -11.398438 5.96875 -11.109375 C 5.851562 -10.828125 5.796875 -10.421875 5.796875 -9.890625 L 5.796875 -9.078125 C 5.796875 -8.617188 5.878906 -8.316406 6.046875 -8.171875 C 6.222656 -8.023438 6.460938 -7.953125 6.765625 -7.953125 L 9.46875 -7.953125 C 9.78125 -7.953125 10.015625 -8.035156 10.171875 -8.203125 C 10.335938 -8.367188 10.421875 -8.671875 10.421875 -9.109375 L 10.421875 -9.890625 C 10.421875 -10.421875 10.359375 -10.828125 10.234375 -11.109375 C 10.117188 -11.398438 9.875 -11.695312 9.5 -12 C 9.382812 -12.082031 9.257812 -12.203125 9.125 -12.359375 C 8.988281 -12.515625 8.921875 -12.6875 8.921875 -12.875 C 8.921875 -13.164062 9.015625 -13.359375 9.203125 -13.453125 C 9.390625 -13.554688 9.71875 -13.609375 10.1875 -13.609375 L 14.40625 -13.609375 C 14.875 -13.609375 15.203125 -13.554688 15.390625 -13.453125 C 15.578125 -13.359375 15.671875 -13.164062 15.671875 -12.875 C 15.671875 -12.6875 15.601562 -12.519531 15.46875 -12.375 C 15.332031 -12.226562 15.203125 -12.101562 15.078125 -12 C 14.722656 -11.695312 14.484375 -11.398438 14.359375 -11.109375 C 14.242188 -10.828125 14.1875 -10.421875 14.1875 -9.890625 L 14.1875 -3.71875 C 14.1875 -3.195312 14.25 -2.789062 14.375 -2.5 C 14.5 -2.207031 14.742188 -1.910156 15.109375 -1.609375 C 15.222656 -1.523438 15.347656 -1.40625 15.484375 -1.25 C 15.617188 -1.09375 15.6875 -0.921875 15.6875 -0.734375 C 15.6875 -0.453125 15.59375 -0.257812 15.40625 -0.15625 C 15.21875 -0.0507812 14.890625 0 14.421875 0 L 10.203125 0 C 9.734375 0 9.40625 -0.0507812 9.21875 -0.15625 C 9.03125 -0.257812 8.9375 -0.453125 8.9375 -0.734375 C 8.9375 -0.921875 9.003906 -1.09375 9.140625 -1.25 C 9.273438 -1.40625 9.40625 -1.523438 9.53125 -1.609375 C 9.882812 -1.910156 10.117188 -2.207031 10.234375 -2.5 C 10.359375 -2.789062 10.421875 -3.195312 10.421875 -3.71875 L 10.421875 -4.796875 C 10.421875 -5.296875 10.332031 -5.617188 10.15625 -5.765625 C 9.988281 -5.921875 9.757812 -6 9.46875 -6 L 6.765625 -6 C 6.453125 -6 6.210938 -5.929688 6.046875 -5.796875 C 5.878906 -5.660156 5.796875 -5.328125 5.796875 -4.796875 L 5.796875 -3.71875 C 5.796875 -3.195312 5.851562 -2.789062 5.96875 -2.5 C 6.09375 -2.207031 6.335938 -1.910156 6.703125 -1.609375 C 6.816406 -1.523438 6.941406 -1.40625 7.078125 -1.25 C 7.222656 -1.09375 7.296875 -0.921875 7.296875 -0.734375 C 7.296875 -0.453125 7.195312 -0.257812 7 -0.15625 C 6.8125 -0.0507812 6.488281 0 6.03125 0 Z M 1.8125 0 "/></g></g></g><g fill="#004d3d" fill-opacity="1"><g transform="translate(26.707071, 21.163248)"><g><path d="M 11.875 -4.671875 C 12.363281 -4.671875 12.617188 -4.414062 12.640625 -3.90625 C 12.660156 -3.40625 12.53125 -2.65625 12.25 -1.65625 C 12.007812 -0.8125 11.773438 -0.253906 11.546875 0.015625 C 11.328125 0.285156 11.070312 0.421875 10.78125 0.421875 C 10.550781 0.421875 10.375 0.382812 10.25 0.3125 C 10.125 0.25 9.960938 0.179688 9.765625 0.109375 C 9.566406 0.0351562 9.226562 0 8.75 0 L 1.8125 0 C 1.34375 0 1.015625 -0.0507812 0.828125 -0.15625 C 0.640625 -0.257812 0.546875 -0.453125 0.546875 -0.734375 C 0.546875 -0.921875 0.613281 -1.09375 0.75 -1.25 C 0.882812 -1.40625 1.007812 -1.523438 1.125 -1.609375 C 1.488281 -1.910156 1.726562 -2.207031 1.84375 -2.5 C 1.957031 -2.789062 2.015625 -3.195312 2.015625 -3.71875 L 2.015625 -9.890625 C 2.015625 -10.421875 1.957031 -10.828125 1.84375 -11.109375 C 1.726562 -11.398438 1.484375 -11.695312 1.109375 -12 C 0.992188 -12.101562 0.867188 -12.222656 0.734375 -12.359375 C 0.597656 -12.492188 0.53125 -12.664062 0.53125 -12.875 C 0.53125 -13.09375 0.597656 -13.269531 0.734375 -13.40625 C 0.878906 -13.550781 1.1875 -13.625 1.65625 -13.625 C 1.789062 -13.625 1.984375 -13.625 2.234375 -13.625 C 2.492188 -13.625 2.863281 -13.617188 3.34375 -13.609375 C 3.820312 -13.609375 4.457031 -13.609375 5.25 -13.609375 C 6.039062 -13.609375 7.046875 -13.609375 8.265625 -13.609375 C 8.640625 -13.609375 8.921875 -13.628906 9.109375 -13.671875 C 9.304688 -13.722656 9.457031 -13.769531 9.5625 -13.8125 C 9.675781 -13.863281 9.785156 -13.910156 9.890625 -13.953125 C 10.003906 -14.003906 10.15625 -14.03125 10.34375 -14.03125 C 10.601562 -14.03125 10.84375 -13.894531 11.0625 -13.625 C 11.28125 -13.351562 11.503906 -12.796875 11.734375 -11.953125 C 12.035156 -10.898438 12.171875 -10.132812 12.140625 -9.65625 C 12.117188 -9.175781 11.867188 -8.9375 11.390625 -8.9375 C 11.171875 -8.9375 10.96875 -9.007812 10.78125 -9.15625 C 10.601562 -9.3125 10.457031 -9.5 10.34375 -9.71875 C 10.039062 -10.375 9.789062 -10.859375 9.59375 -11.171875 C 9.40625 -11.492188 9.195312 -11.707031 8.96875 -11.8125 C 8.738281 -11.914062 8.40625 -11.96875 7.96875 -11.96875 L 6.625 -11.96875 C 6.382812 -11.96875 6.1875 -11.921875 6.03125 -11.828125 C 5.882812 -11.734375 5.8125 -11.457031 5.8125 -11 L 5.8125 -8.609375 C 5.8125 -8.398438 5.832031 -8.226562 5.875 -8.09375 C 5.925781 -7.957031 6.019531 -7.890625 6.15625 -7.890625 L 7 -7.890625 C 7.257812 -7.890625 7.46875 -7.929688 7.625 -8.015625 C 7.78125 -8.097656 7.859375 -8.320312 7.859375 -8.6875 C 7.859375 -8.914062 7.925781 -9.101562 8.0625 -9.25 C 8.195312 -9.40625 8.367188 -9.484375 8.578125 -9.484375 C 8.929688 -9.484375 9.171875 -9.320312 9.296875 -9 C 9.429688 -8.675781 9.5 -8.046875 9.5 -7.109375 C 9.5 -6.179688 9.4375 -5.554688 9.3125 -5.234375 C 9.195312 -4.910156 8.953125 -4.75 8.578125 -4.75 C 8.367188 -4.75 8.195312 -4.820312 8.0625 -4.96875 C 7.925781 -5.113281 7.859375 -5.296875 7.859375 -5.515625 C 7.859375 -5.910156 7.78125 -6.148438 7.625 -6.234375 C 7.46875 -6.328125 7.257812 -6.375 7 -6.375 L 6.21875 -6.375 C 6.050781 -6.375 5.941406 -6.3125 5.890625 -6.1875 C 5.835938 -6.0625 5.8125 -5.890625 5.8125 -5.671875 L 5.8125 -2.46875 C 5.8125 -2.113281 5.875 -1.882812 6 -1.78125 C 6.125 -1.675781 6.347656 -1.625 6.671875 -1.625 L 8.6875 -1.625 C 9.269531 -1.625 9.71875 -1.804688 10.03125 -2.171875 C 10.34375 -2.546875 10.617188 -3.113281 10.859375 -3.875 C 10.992188 -4.195312 11.148438 -4.410156 11.328125 -4.515625 C 11.515625 -4.617188 11.695312 -4.671875 11.875 -4.671875 Z M 11.875 -4.671875 "/></g></g></g><g fill="#004d3d" fill-opacity="1"><g transform="translate(49.472446, 21.163248)"><g><path d="M 1.0625 0.015625 C 0.664062 0.015625 0.40625 -0.0546875 0.28125 -0.203125 C 0.15625 -0.347656 0.09375 -0.507812 0.09375 -0.6875 C 0.09375 -0.863281 0.175781 -1.023438 0.34375 -1.171875 C 0.519531 -1.328125 0.707031 -1.445312 0.90625 -1.53125 C 1.257812 -1.675781 1.523438 -1.863281 1.703125 -2.09375 C 1.890625 -2.332031 2.066406 -2.671875 2.234375 -3.109375 C 2.753906 -4.453125 3.269531 -5.796875 3.78125 -7.140625 C 4.300781 -8.484375 4.820312 -9.820312 5.34375 -11.15625 C 5.425781 -11.375 5.4375 -11.597656 5.375 -11.828125 C 5.3125 -12.066406 5.191406 -12.234375 5.015625 -12.328125 C 4.867188 -12.398438 4.753906 -12.492188 4.671875 -12.609375 C 4.585938 -12.734375 4.546875 -12.878906 4.546875 -13.046875 C 4.546875 -13.160156 4.601562 -13.300781 4.71875 -13.46875 C 4.832031 -13.632812 5.085938 -13.71875 5.484375 -13.71875 L 7.25 -13.71875 C 7.945312 -13.71875 8.488281 -13.609375 8.875 -13.390625 C 9.257812 -13.179688 9.546875 -12.925781 9.734375 -12.625 C 9.921875 -12.332031 10.066406 -12.046875 10.171875 -11.765625 C 10.753906 -10.273438 11.332031 -8.78125 11.90625 -7.28125 C 12.476562 -5.789062 13.054688 -4.300781 13.640625 -2.8125 C 13.753906 -2.519531 13.875 -2.296875 14 -2.140625 C 14.125 -1.992188 14.316406 -1.847656 14.578125 -1.703125 C 14.703125 -1.640625 14.828125 -1.539062 14.953125 -1.40625 C 15.078125 -1.269531 15.140625 -1.070312 15.140625 -0.8125 C 15.140625 -0.570312 15.070312 -0.390625 14.9375 -0.265625 C 14.800781 -0.148438 14.640625 -0.078125 14.453125 -0.046875 C 14.265625 -0.015625 14.09375 0 13.9375 0 L 10.5 0 C 9.875 0 9.382812 -0.0234375 9.03125 -0.078125 C 8.675781 -0.140625 8.5 -0.351562 8.5 -0.71875 C 8.5 -0.96875 8.609375 -1.160156 8.828125 -1.296875 C 9.054688 -1.472656 9.222656 -1.65625 9.328125 -1.84375 C 9.441406 -2.03125 9.4375 -2.300781 9.3125 -2.65625 L 9.15625 -3.125 C 9.070312 -3.34375 8.941406 -3.519531 8.765625 -3.65625 C 8.597656 -3.800781 8.414062 -3.875 8.21875 -3.875 L 5.109375 -3.875 C 4.847656 -3.875 4.648438 -3.84375 4.515625 -3.78125 C 4.390625 -3.71875 4.273438 -3.566406 4.171875 -3.328125 L 4.046875 -2.921875 C 3.890625 -2.460938 3.835938 -2.113281 3.890625 -1.875 C 3.941406 -1.632812 4.101562 -1.460938 4.375 -1.359375 C 4.53125 -1.304688 4.675781 -1.222656 4.8125 -1.109375 C 4.945312 -1.003906 5.015625 -0.851562 5.015625 -0.65625 C 5.015625 -0.375 4.898438 -0.191406 4.671875 -0.109375 C 4.441406 -0.0234375 4.203125 0.015625 3.953125 0.015625 Z M 5.765625 -5.515625 L 7.625 -5.515625 C 7.800781 -5.515625 7.957031 -5.554688 8.09375 -5.640625 C 8.238281 -5.722656 8.285156 -5.832031 8.234375 -5.96875 L 7.015625 -9.734375 C 6.953125 -9.953125 6.859375 -10.0625 6.734375 -10.0625 C 6.617188 -10.0625 6.523438 -9.953125 6.453125 -9.734375 L 5.109375 -5.984375 C 5.046875 -5.804688 5.097656 -5.679688 5.265625 -5.609375 C 5.429688 -5.546875 5.597656 -5.515625 5.765625 -5.515625 Z M 5.765625 -5.515625 "/></g></g></g><g fill="#004d3d" fill-opacity="1"><g transform="translate(74.376297, 21.163248)"><g><path d="M 10.328125 0.421875 C 10.140625 0.421875 9.988281 0.398438 9.875 0.359375 C 9.769531 0.316406 9.65625 0.269531 9.53125 0.21875 C 9.40625 0.164062 9.234375 0.113281 9.015625 0.0625 C 8.796875 0.0195312 8.488281 0 8.09375 0 L 3.796875 0 C 3.484375 0 3.195312 0 2.9375 0 C 2.6875 0 2.3125 0 1.8125 0 C 1.34375 0 1.015625 -0.0507812 0.828125 -0.15625 C 0.640625 -0.257812 0.546875 -0.453125 0.546875 -0.734375 C 0.546875 -0.921875 0.613281 -1.09375 0.75 -1.25 C 0.882812 -1.40625 1.007812 -1.523438 1.125 -1.609375 C 1.5 -1.910156 1.738281 -2.207031 1.84375 -2.5 C 1.957031 -2.789062 2.015625 -3.195312 2.015625 -3.71875 L 2.015625 -9.890625 C 2.015625 -10.421875 1.957031 -10.828125 1.84375 -11.109375 C 1.726562 -11.398438 1.484375 -11.695312 1.109375 -12 C 0.992188 -12.082031 0.867188 -12.203125 0.734375 -12.359375 C 0.597656 -12.515625 0.53125 -12.6875 0.53125 -12.875 C 0.53125 -13.164062 0.625 -13.359375 0.8125 -13.453125 C 1 -13.554688 1.320312 -13.609375 1.78125 -13.609375 L 6.0625 -13.609375 C 6.632812 -13.609375 7.03125 -13.554688 7.25 -13.453125 C 7.46875 -13.359375 7.578125 -13.164062 7.578125 -12.875 C 7.578125 -12.6875 7.492188 -12.519531 7.328125 -12.375 C 7.171875 -12.226562 7.019531 -12.101562 6.875 -12 C 6.445312 -11.707031 6.160156 -11.414062 6.015625 -11.125 C 5.878906 -10.832031 5.8125 -10.421875 5.8125 -9.890625 L 5.8125 -2.546875 C 5.8125 -2.171875 5.890625 -1.9375 6.046875 -1.84375 C 6.210938 -1.75 6.421875 -1.703125 6.671875 -1.703125 L 8.03125 -1.703125 C 8.625 -1.703125 9.09375 -1.875 9.4375 -2.21875 C 9.78125 -2.5625 10.085938 -3.113281 10.359375 -3.875 C 10.472656 -4.195312 10.625 -4.410156 10.8125 -4.515625 C 11 -4.617188 11.175781 -4.671875 11.34375 -4.671875 C 11.84375 -4.671875 12.117188 -4.40625 12.171875 -3.875 C 12.222656 -3.351562 12.070312 -2.59375 11.71875 -1.59375 C 11.4375 -0.757812 11.191406 -0.21875 10.984375 0.03125 C 10.785156 0.289062 10.566406 0.421875 10.328125 0.421875 Z M 10.328125 0.421875 "/></g></g></g><g fill="#004d3d" fill-opacity="1"><g transform="translate(96.383486, 21.163248)"><g><path d="M 4.609375 0 C 3.992188 0 3.5625 -0.0507812 3.3125 -0.15625 C 3.070312 -0.257812 2.953125 -0.453125 2.953125 -0.734375 C 2.953125 -0.921875 3.039062 -1.09375 3.21875 -1.25 C 3.40625 -1.40625 3.570312 -1.523438 3.71875 -1.609375 C 4.195312 -1.910156 4.507812 -2.207031 4.65625 -2.5 C 4.800781 -2.789062 4.875 -3.195312 4.875 -3.71875 L 4.875 -11.25 C 4.875 -11.539062 4.832031 -11.734375 4.75 -11.828125 C 4.664062 -11.921875 4.535156 -11.96875 4.359375 -11.96875 L 3.890625 -11.96875 C 3.523438 -11.96875 3.25 -11.8125 3.0625 -11.5 C 2.875 -11.195312 2.640625 -10.71875 2.359375 -10.0625 C 2.117188 -9.53125 1.894531 -9.15625 1.6875 -8.9375 C 1.476562 -8.71875 1.234375 -8.609375 0.953125 -8.609375 C 0.523438 -8.609375 0.257812 -8.765625 0.15625 -9.078125 C 0.0625 -9.398438 0.0664062 -9.8125 0.171875 -10.3125 C 0.285156 -10.820312 0.429688 -11.359375 0.609375 -11.921875 C 0.796875 -12.554688 1.007812 -13.066406 1.25 -13.453125 C 1.488281 -13.835938 1.742188 -14.03125 2.015625 -14.03125 C 2.210938 -14.03125 2.398438 -13.992188 2.578125 -13.921875 C 2.753906 -13.847656 2.953125 -13.773438 3.171875 -13.703125 C 3.398438 -13.640625 3.695312 -13.609375 4.0625 -13.609375 L 9.40625 -13.609375 C 9.882812 -13.609375 10.238281 -13.640625 10.46875 -13.703125 C 10.707031 -13.773438 10.898438 -13.847656 11.046875 -13.921875 C 11.203125 -13.992188 11.378906 -14.03125 11.578125 -14.03125 C 11.828125 -14.03125 12.054688 -13.878906 12.265625 -13.578125 C 12.472656 -13.285156 12.707031 -12.734375 12.96875 -11.921875 C 13.175781 -11.316406 13.332031 -10.757812 13.4375 -10.25 C 13.550781 -9.75 13.5625 -9.347656 13.46875 -9.046875 C 13.375 -8.753906 13.125 -8.609375 12.71875 -8.609375 C 12.4375 -8.609375 12.1875 -8.710938 11.96875 -8.921875 C 11.75 -9.140625 11.519531 -9.519531 11.28125 -10.0625 C 10.988281 -10.695312 10.75 -11.171875 10.5625 -11.484375 C 10.375 -11.804688 10.113281 -11.96875 9.78125 -11.96875 L 9.3125 -11.96875 C 9.101562 -11.96875 8.957031 -11.921875 8.875 -11.828125 C 8.789062 -11.734375 8.75 -11.539062 8.75 -11.25 L 8.75 -3.71875 C 8.75 -3.351562 8.78125 -3.050781 8.84375 -2.8125 C 8.90625 -2.570312 9.019531 -2.363281 9.1875 -2.1875 C 9.363281 -2.007812 9.601562 -1.816406 9.90625 -1.609375 C 10.132812 -1.484375 10.316406 -1.351562 10.453125 -1.21875 C 10.597656 -1.09375 10.671875 -0.925781 10.671875 -0.71875 C 10.671875 -0.507812 10.582031 -0.332031 10.40625 -0.1875 C 10.226562 -0.0507812 9.835938 0.015625 9.234375 0.015625 C 8.722656 0.015625 8.285156 0.015625 7.921875 0.015625 C 7.566406 0.015625 7.226562 0.0078125 6.90625 0 C 6.59375 0 6.253906 0 5.890625 0 C 5.535156 0 5.109375 0 4.609375 0 Z M 4.609375 0 "/></g></g></g><g fill="#004d3d" fill-opacity="1"><g transform="translate(119.673759, 21.163248)"><g><path d="M 1.8125 0 C 1.34375 0 1.015625 -0.0507812 0.828125 -0.15625 C 0.640625 -0.257812 0.546875 -0.453125 0.546875 -0.734375 C 0.546875 -0.921875 0.613281 -1.09375 0.75 -1.25 C 0.882812 -1.40625 1.007812 -1.523438 1.125 -1.609375 C 1.488281 -1.910156 1.726562 -2.207031 1.84375 -2.5 C 1.957031 -2.789062 2.015625 -3.195312 2.015625 -3.71875 L 2.015625 -9.890625 C 2.015625 -10.421875 1.953125 -10.832031 1.828125 -11.125 C 1.710938 -11.414062 1.472656 -11.707031 1.109375 -12 C 0.992188 -12.082031 0.867188 -12.203125 0.734375 -12.359375 C 0.597656 -12.515625 0.53125 -12.6875 0.53125 -12.875 C 0.53125 -13.164062 0.625 -13.359375 0.8125 -13.453125 C 1 -13.554688 1.320312 -13.609375 1.78125 -13.609375 L 6 -13.609375 C 6.46875 -13.609375 6.796875 -13.554688 6.984375 -13.453125 C 7.171875 -13.359375 7.265625 -13.164062 7.265625 -12.875 C 7.265625 -12.6875 7.195312 -12.519531 7.0625 -12.375 C 6.925781 -12.226562 6.800781 -12.101562 6.6875 -12 C 6.320312 -11.695312 6.082031 -11.398438 5.96875 -11.109375 C 5.851562 -10.828125 5.796875 -10.421875 5.796875 -9.890625 L 5.796875 -9.078125 C 5.796875 -8.617188 5.878906 -8.316406 6.046875 -8.171875 C 6.222656 -8.023438 6.460938 -7.953125 6.765625 -7.953125 L 9.46875 -7.953125 C 9.78125 -7.953125 10.015625 -8.035156 10.171875 -8.203125 C 10.335938 -8.367188 10.421875 -8.671875 10.421875 -9.109375 L 10.421875 -9.890625 C 10.421875 -10.421875 10.359375 -10.828125 10.234375 -11.109375 C 10.117188 -11.398438 9.875 -11.695312 9.5 -12 C 9.382812 -12.082031 9.257812 -12.203125 9.125 -12.359375 C 8.988281 -12.515625 8.921875 -12.6875 8.921875 -12.875 C 8.921875 -13.164062 9.015625 -13.359375 9.203125 -13.453125 C 9.390625 -13.554688 9.71875 -13.609375 10.1875 -13.609375 L 14.40625 -13.609375 C 14.875 -13.609375 15.203125 -13.554688 15.390625 -13.453125 C 15.578125 -13.359375 15.671875 -13.164062 15.671875 -12.875 C 15.671875 -12.6875 15.601562 -12.519531 15.46875 -12.375 C 15.332031 -12.226562 15.203125 -12.101562 15.078125 -12 C 14.722656 -11.695312 14.484375 -11.398438 14.359375 -11.109375 C 14.242188 -10.828125 14.1875 -10.421875 14.1875 -9.890625 L 14.1875 -3.71875 C 14.1875 -3.195312 14.25 -2.789062 14.375 -2.5 C 14.5 -2.207031 14.742188 -1.910156 15.109375 -1.609375 C 15.222656 -1.523438 15.347656 -1.40625 15.484375 -1.25 C 15.617188 -1.09375 15.6875 -0.921875 15.6875 -0.734375 C 15.6875 -0.453125 15.59375 -0.257812 15.40625 -0.15625 C 15.21875 -0.0507812 14.890625 0 14.421875 0 L 10.203125 0 C 9.734375 0 9.40625 -0.0507812 9.21875 -0.15625 C 9.03125 -0.257812 8.9375 -0.453125 8.9375 -0.734375 C 8.9375 -0.921875 9.003906 -1.09375 9.140625 -1.25 C 9.273438 -1.40625 9.40625 -1.523438 9.53125 -1.609375 C 9.882812 -1.910156 10.117188 -2.207031 10.234375 -2.5 C 10.359375 -2.789062 10.421875 -3.195312 10.421875 -3.71875 L 10.421875 -4.796875 C 10.421875 -5.296875 10.332031 -5.617188 10.15625 -5.765625 C 9.988281 -5.921875 9.757812 -6 9.46875 -6 L 6.765625 -6 C 6.453125 -6 6.210938 -5.929688 6.046875 -5.796875 C 5.878906 -5.660156 5.796875 -5.328125 5.796875 -4.796875 L 5.796875 -3.71875 C 5.796875 -3.195312 5.851562 -2.789062 5.96875 -2.5 C 6.09375 -2.207031 6.335938 -1.910156 6.703125 -1.609375 C 6.816406 -1.523438 6.941406 -1.40625 7.078125 -1.25 C 7.222656 -1.09375 7.296875 -0.921875 7.296875 -0.734375 C 7.296875 -0.453125 7.195312 -0.257812 7 -0.15625 C 6.8125 -0.0507812 6.488281 0 6.03125 0 Z M 1.8125 0 "/></g></g></g><g fill="#004d3d" fill-opacity="1"><g transform="translate(145.549643, 21.163248)"><g><path d="M 4.828125 0 C 4.359375 0 4.03125 -0.0507812 3.84375 -0.15625 C 3.65625 -0.257812 3.5625 -0.453125 3.5625 -0.734375 C 3.5625 -0.921875 3.628906 -1.09375 3.765625 -1.25 C 3.898438 -1.40625 4.023438 -1.523438 4.140625 -1.609375 C 4.503906 -1.910156 4.742188 -2.207031 4.859375 -2.5 C 4.972656 -2.789062 5.03125 -3.195312 5.03125 -3.71875 L 5.03125 -4.28125 C 5.03125 -4.601562 4.96875 -4.953125 4.84375 -5.328125 C 4.726562 -5.710938 4.578125 -6.066406 4.390625 -6.390625 L 2.015625 -10.703125 C 1.828125 -11.066406 1.625 -11.328125 1.40625 -11.484375 C 1.195312 -11.648438 0.972656 -11.78125 0.734375 -11.875 C 0.554688 -11.957031 0.40625 -12.054688 0.28125 -12.171875 C 0.15625 -12.296875 0.09375 -12.492188 0.09375 -12.765625 C 0.09375 -13.128906 0.226562 -13.359375 0.5 -13.453125 C 0.769531 -13.554688 1.164062 -13.609375 1.6875 -13.609375 L 5.625 -13.609375 C 6.320312 -13.609375 6.773438 -13.53125 6.984375 -13.375 C 7.203125 -13.226562 7.3125 -13.0625 7.3125 -12.875 C 7.3125 -12.632812 7.25 -12.453125 7.125 -12.328125 C 7.007812 -12.210938 6.882812 -12.101562 6.75 -12 C 6.507812 -11.851562 6.347656 -11.6875 6.265625 -11.5 C 6.191406 -11.3125 6.226562 -11.082031 6.375 -10.8125 L 7.640625 -8.53125 C 7.742188 -8.351562 7.859375 -8.257812 7.984375 -8.25 C 8.117188 -8.238281 8.226562 -8.332031 8.3125 -8.53125 L 9.640625 -11.0625 C 9.796875 -11.351562 9.8125 -11.578125 9.6875 -11.734375 C 9.5625 -11.890625 9.382812 -12.046875 9.15625 -12.203125 C 9 -12.304688 8.898438 -12.40625 8.859375 -12.5 C 8.828125 -12.601562 8.8125 -12.71875 8.8125 -12.84375 C 8.8125 -13.164062 8.914062 -13.375 9.125 -13.46875 C 9.34375 -13.5625 9.648438 -13.609375 10.046875 -13.609375 L 12.453125 -13.609375 C 12.796875 -13.609375 13.070312 -13.550781 13.28125 -13.4375 C 13.488281 -13.332031 13.578125 -13.148438 13.546875 -12.890625 C 13.535156 -12.640625 13.425781 -12.445312 13.21875 -12.3125 C 13.019531 -12.175781 12.832031 -12.054688 12.65625 -11.953125 C 12.457031 -11.847656 12.296875 -11.703125 12.171875 -11.515625 C 12.054688 -11.335938 11.878906 -11.039062 11.640625 -10.625 L 9.328125 -6.609375 C 9.179688 -6.359375 9.0625 -6.035156 8.96875 -5.640625 C 8.875 -5.242188 8.828125 -4.789062 8.828125 -4.28125 L 8.828125 -3.71875 C 8.828125 -3.195312 8.882812 -2.789062 9 -2.5 C 9.113281 -2.207031 9.351562 -1.910156 9.71875 -1.609375 C 9.863281 -1.492188 9.992188 -1.367188 10.109375 -1.234375 C 10.234375 -1.109375 10.296875 -0.941406 10.296875 -0.734375 C 10.296875 -0.523438 10.226562 -0.347656 10.09375 -0.203125 C 9.957031 -0.0546875 9.65625 0.015625 9.1875 0.015625 Z M 4.828125 0 "/></g></g></g><g fill="#004d3d" fill-opacity="1"><g transform="translate(168.859361, 21.163248)"><g/></g></g><g fill="#004d3d" fill-opacity="1"><g transform="translate(184.451135, 21.163248)"><g><path d="M 11.875 -4.671875 C 12.363281 -4.671875 12.617188 -4.414062 12.640625 -3.90625 C 12.660156 -3.40625 12.53125 -2.65625 12.25 -1.65625 C 12.007812 -0.8125 11.773438 -0.253906 11.546875 0.015625 C 11.328125 0.285156 11.070312 0.421875 10.78125 0.421875 C 10.550781 0.421875 10.375 0.382812 10.25 0.3125 C 10.125 0.25 9.960938 0.179688 9.765625 0.109375 C 9.566406 0.0351562 9.226562 0 8.75 0 L 1.8125 0 C 1.34375 0 1.015625 -0.0507812 0.828125 -0.15625 C 0.640625 -0.257812 0.546875 -0.453125 0.546875 -0.734375 C 0.546875 -0.921875 0.613281 -1.09375 0.75 -1.25 C 0.882812 -1.40625 1.007812 -1.523438 1.125 -1.609375 C 1.488281 -1.910156 1.726562 -2.207031 1.84375 -2.5 C 1.957031 -2.789062 2.015625 -3.195312 2.015625 -3.71875 L 2.015625 -9.890625 C 2.015625 -10.421875 1.957031 -10.828125 1.84375 -11.109375 C 1.726562 -11.398438 1.484375 -11.695312 1.109375 -12 C 0.992188 -12.101562 0.867188 -12.222656 0.734375 -12.359375 C 0.597656 -12.492188 0.53125 -12.664062 0.53125 -12.875 C 0.53125 -13.09375 0.597656 -13.269531 0.734375 -13.40625 C 0.878906 -13.550781 1.1875 -13.625 1.65625 -13.625 C 1.789062 -13.625 1.984375 -13.625 2.234375 -13.625 C 2.492188 -13.625 2.863281 -13.617188 3.34375 -13.609375 C 3.820312 -13.609375 4.457031 -13.609375 5.25 -13.609375 C 6.039062 -13.609375 7.046875 -13.609375 8.265625 -13.609375 C 8.640625 -13.609375 8.921875 -13.628906 9.109375 -13.671875 C 9.304688 -13.722656 9.457031 -13.769531 9.5625 -13.8125 C 9.675781 -13.863281 9.785156 -13.910156 9.890625 -13.953125 C 10.003906 -14.003906 10.15625 -14.03125 10.34375 -14.03125 C 10.601562 -14.03125 10.84375 -13.894531 11.0625 -13.625 C 11.28125 -13.351562 11.503906 -12.796875 11.734375 -11.953125 C 12.035156 -10.898438 12.171875 -10.132812 12.140625 -9.65625 C 12.117188 -9.175781 11.867188 -8.9375 11.390625 -8.9375 C 11.171875 -8.9375 10.96875 -9.007812 10.78125 -9.15625 C 10.601562 -9.3125 10.457031 -9.5 10.34375 -9.71875 C 10.039062 -10.375 9.789062 -10.859375 9.59375 -11.171875 C 9.40625 -11.492188 9.195312 -11.707031 8.96875 -11.8125 C 8.738281 -11.914062 8.40625 -11.96875 7.96875 -11.96875 L 6.625 -11.96875 C 6.382812 -11.96875 6.1875 -11.921875 6.03125 -11.828125 C 5.882812 -11.734375 5.8125 -11.457031 5.8125 -11 L 5.8125 -8.609375 C 5.8125 -8.398438 5.832031 -8.226562 5.875 -8.09375 C 5.925781 -7.957031 6.019531 -7.890625 6.15625 -7.890625 L 7 -7.890625 C 7.257812 -7.890625 7.46875 -7.929688 7.625 -8.015625 C 7.78125 -8.097656 7.859375 -8.320312 7.859375 -8.6875 C 7.859375 -8.914062 7.925781 -9.101562 8.0625 -9.25 C 8.195312 -9.40625 8.367188 -9.484375 8.578125 -9.484375 C 8.929688 -9.484375 9.171875 -9.320312 9.296875 -9 C 9.429688 -8.675781 9.5 -8.046875 9.5 -7.109375 C 9.5 -6.179688 9.4375 -5.554688 9.3125 -5.234375 C 9.195312 -4.910156 8.953125 -4.75 8.578125 -4.75 C 8.367188 -4.75 8.195312 -4.820312 8.0625 -4.96875 C 7.925781 -5.113281 7.859375 -5.296875 7.859375 -5.515625 C 7.859375 -5.910156 7.78125 -6.148438 7.625 -6.234375 C 7.46875 -6.328125 7.257812 -6.375 7 -6.375 L 6.21875 -6.375 C 6.050781 -6.375 5.941406 -6.3125 5.890625 -6.1875 C 5.835938 -6.0625 5.8125 -5.890625 5.8125 -5.671875 L 5.8125 -2.46875 C 5.8125 -2.113281 5.875 -1.882812 6 -1.78125 C 6.125 -1.675781 6.347656 -1.625 6.671875 -1.625 L 8.6875 -1.625 C 9.269531 -1.625 9.71875 -1.804688 10.03125 -2.171875 C 10.34375 -2.546875 10.617188 -3.113281 10.859375 -3.875 C 10.992188 -4.195312 11.148438 -4.410156 11.328125 -4.515625 C 11.515625 -4.617188 11.695312 -4.671875 11.875 -4.671875 Z M 11.875 -4.671875 "/></g></g></g><g fill="#004d3d" fill-opacity="1"><g transform="translate(207.216501, 21.163248)"><g><path d="M 7.640625 0.09375 L 7.5625 0.09375 C 7.15625 0.09375 6.785156 -0.0195312 6.453125 -0.25 C 6.117188 -0.488281 5.851562 -0.847656 5.65625 -1.328125 L 2.015625 -10.375 C 1.847656 -10.832031 1.664062 -11.160156 1.46875 -11.359375 C 1.28125 -11.554688 1.019531 -11.726562 0.6875 -11.875 C 0.507812 -11.957031 0.363281 -12.054688 0.25 -12.171875 C 0.144531 -12.296875 0.09375 -12.476562 0.09375 -12.71875 C 0.09375 -13.113281 0.285156 -13.359375 0.671875 -13.453125 C 1.054688 -13.554688 1.679688 -13.609375 2.546875 -13.609375 L 5.4375 -13.609375 C 6.0625 -13.609375 6.519531 -13.570312 6.8125 -13.5 C 7.113281 -13.4375 7.3125 -13.34375 7.40625 -13.21875 C 7.507812 -13.101562 7.5625 -12.953125 7.5625 -12.765625 C 7.5625 -12.609375 7.503906 -12.457031 7.390625 -12.3125 C 7.273438 -12.175781 7.085938 -12.050781 6.828125 -11.9375 C 6.535156 -11.820312 6.320312 -11.675781 6.1875 -11.5 C 6.0625 -11.332031 6.085938 -11.023438 6.265625 -10.578125 L 8.21875 -5.171875 C 8.351562 -4.847656 8.488281 -4.679688 8.625 -4.671875 C 8.757812 -4.671875 8.882812 -4.832031 9 -5.15625 C 9.332031 -6.09375 9.664062 -7.03125 10 -7.96875 C 10.34375 -8.914062 10.679688 -9.863281 11.015625 -10.8125 C 11.148438 -11.1875 11.15625 -11.429688 11.03125 -11.546875 C 10.90625 -11.660156 10.6875 -11.773438 10.375 -11.890625 C 10.101562 -11.992188 9.914062 -12.117188 9.8125 -12.265625 C 9.707031 -12.410156 9.65625 -12.566406 9.65625 -12.734375 C 9.65625 -13.046875 9.769531 -13.269531 10 -13.40625 C 10.226562 -13.539062 10.617188 -13.609375 11.171875 -13.609375 C 11.546875 -13.597656 11.972656 -13.59375 12.453125 -13.59375 C 12.929688 -13.59375 13.398438 -13.597656 13.859375 -13.609375 C 14.234375 -13.609375 14.53125 -13.539062 14.75 -13.40625 C 14.96875 -13.269531 15.078125 -13.066406 15.078125 -12.796875 C 15.078125 -12.546875 15.015625 -12.359375 14.890625 -12.234375 C 14.773438 -12.109375 14.585938 -11.992188 14.328125 -11.890625 C 14.035156 -11.785156 13.789062 -11.644531 13.59375 -11.46875 C 13.394531 -11.289062 13.203125 -10.972656 13.015625 -10.515625 C 12.421875 -8.984375 11.816406 -7.453125 11.203125 -5.921875 C 10.597656 -4.398438 9.992188 -2.867188 9.390625 -1.328125 C 9.222656 -0.898438 8.976562 -0.554688 8.65625 -0.296875 C 8.34375 -0.0351562 8.003906 0.09375 7.640625 0.09375 Z M 7.640625 0.09375 "/></g></g></g><g fill="#004d3d" fill-opacity="1"><g transform="translate(232.062019, 21.163248)"><g><path d="M 11.875 -4.671875 C 12.363281 -4.671875 12.617188 -4.414062 12.640625 -3.90625 C 12.660156 -3.40625 12.53125 -2.65625 12.25 -1.65625 C 12.007812 -0.8125 11.773438 -0.253906 11.546875 0.015625 C 11.328125 0.285156 11.070312 0.421875 10.78125 0.421875 C 10.550781 0.421875 10.375 0.382812 10.25 0.3125 C 10.125 0.25 9.960938 0.179688 9.765625 0.109375 C 9.566406 0.0351562 9.226562 0 8.75 0 L 1.8125 0 C 1.34375 0 1.015625 -0.0507812 0.828125 -0.15625 C 0.640625 -0.257812 0.546875 -0.453125 0.546875 -0.734375 C 0.546875 -0.921875 0.613281 -1.09375 0.75 -1.25 C 0.882812 -1.40625 1.007812 -1.523438 1.125 -1.609375 C 1.488281 -1.910156 1.726562 -2.207031 1.84375 -2.5 C 1.957031 -2.789062 2.015625 -3.195312 2.015625 -3.71875 L 2.015625 -9.890625 C 2.015625 -10.421875 1.957031 -10.828125 1.84375 -11.109375 C 1.726562 -11.398438 1.484375 -11.695312 1.109375 -12 C 0.992188 -12.101562 0.867188 -12.222656 0.734375 -12.359375 C 0.597656 -12.492188 0.53125 -12.664062 0.53125 -12.875 C 0.53125 -13.09375 0.597656 -13.269531 0.734375 -13.40625 C 0.878906 -13.550781 1.1875 -13.625 1.65625 -13.625 C 1.789062 -13.625 1.984375 -13.625 2.234375 -13.625 C 2.492188 -13.625 2.863281 -13.617188 3.34375 -13.609375 C 3.820312 -13.609375 4.457031 -13.609375 5.25 -13.609375 C 6.039062 -13.609375 7.046875 -13.609375 8.265625 -13.609375 C 8.640625 -13.609375 8.921875 -13.628906 9.109375 -13.671875 C 9.304688 -13.722656 9.457031 -13.769531 9.5625 -13.8125 C 9.675781 -13.863281 9.785156 -13.910156 9.890625 -13.953125 C 10.003906 -14.003906 10.15625 -14.03125 10.34375 -14.03125 C 10.601562 -14.03125 10.84375 -13.894531 11.0625 -13.625 C 11.28125 -13.351562 11.503906 -12.796875 11.734375 -11.953125 C 12.035156 -10.898438 12.171875 -10.132812 12.140625 -9.65625 C 12.117188 -9.175781 11.867188 -8.9375 11.390625 -8.9375 C 11.171875 -8.9375 10.96875 -9.007812 10.78125 -9.15625 C 10.601562 -9.3125 10.457031 -9.5 10.34375 -9.71875 C 10.039062 -10.375 9.789062 -10.859375 9.59375 -11.171875 C 9.40625 -11.492188 9.195312 -11.707031 8.96875 -11.8125 C 8.738281 -11.914062 8.40625 -11.96875 7.96875 -11.96875 L 6.625 -11.96875 C 6.382812 -11.96875 6.1875 -11.921875 6.03125 -11.828125 C 5.882812 -11.734375 5.8125 -11.457031 5.8125 -11 L 5.8125 -8.609375 C 5.8125 -8.398438 5.832031 -8.226562 5.875 -8.09375 C 5.925781 -7.957031 6.019531 -7.890625 6.15625 -7.890625 L 7 -7.890625 C 7.257812 -7.890625 7.46875 -7.929688 7.625 -8.015625 C 7.78125 -8.097656 7.859375 -8.320312 7.859375 -8.6875 C 7.859375 -8.914062 7.925781 -9.101562 8.0625 -9.25 C 8.195312 -9.40625 8.367188 -9.484375 8.578125 -9.484375 C 8.929688 -9.484375 9.171875 -9.320312 9.296875 -9 C 9.429688 -8.675781 9.5 -8.046875 9.5 -7.109375 C 9.5 -6.179688 9.4375 -5.554688 9.3125 -5.234375 C 9.195312 -4.910156 8.953125 -4.75 8.578125 -4.75 C 8.367188 -4.75 8.195312 -4.820312 8.0625 -4.96875 C 7.925781 -5.113281 7.859375 -5.296875 7.859375 -5.515625 C 7.859375 -5.910156 7.78125 -6.148438 7.625 -6.234375 C 7.46875 -6.328125 7.257812 -6.375 7 -6.375 L 6.21875 -6.375 C 6.050781 -6.375 5.941406 -6.3125 5.890625 -6.1875 C 5.835938 -6.0625 5.8125 -5.890625 5.8125 -5.671875 L 5.8125 -2.46875 C 5.8125 -2.113281 5.875 -1.882812 6 -1.78125 C 6.125 -1.675781 6.347656 -1.625 6.671875 -1.625 L 8.6875 -1.625 C 9.269531 -1.625 9.71875 -1.804688 10.03125 -2.171875 C 10.34375 -2.546875 10.617188 -3.113281 10.859375 -3.875 C 10.992188 -4.195312 11.148438 -4.410156 11.328125 -4.515625 C 11.515625 -4.617188 11.695312 -4.671875 11.875 -4.671875 Z M 11.875 -4.671875 "/></g></g></g><g fill="#004d3d" fill-opacity="1"><g transform="translate(254.827403, 21.163248)"><g><path d="M 1.6875 0 C 1.21875 0 0.910156 -0.0507812 0.765625 -0.15625 C 0.617188 -0.257812 0.546875 -0.453125 0.546875 -0.734375 C 0.546875 -0.921875 0.613281 -1.09375 0.75 -1.25 C 0.882812 -1.40625 1.007812 -1.523438 1.125 -1.609375 C 1.488281 -1.921875 1.726562 -2.21875 1.84375 -2.5 C 1.957031 -2.789062 2.015625 -3.195312 2.015625 -3.71875 L 2.015625 -9.890625 C 2.015625 -10.503906 1.945312 -10.9375 1.8125 -11.1875 C 1.675781 -11.445312 1.445312 -11.707031 1.125 -11.96875 C 0.957031 -12.113281 0.816406 -12.265625 0.703125 -12.421875 C 0.585938 -12.578125 0.53125 -12.757812 0.53125 -12.96875 C 0.53125 -13.1875 0.597656 -13.347656 0.734375 -13.453125 C 0.878906 -13.566406 1.1875 -13.625 1.65625 -13.625 C 1.988281 -13.625 2.410156 -13.628906 2.921875 -13.640625 C 3.429688 -13.660156 3.960938 -13.675781 4.515625 -13.6875 C 5.066406 -13.707031 5.578125 -13.722656 6.046875 -13.734375 C 6.523438 -13.753906 6.894531 -13.765625 7.15625 -13.765625 C 9.226562 -13.765625 10.773438 -13.390625 11.796875 -12.640625 C 12.816406 -11.898438 13.328125 -10.898438 13.328125 -9.640625 C 13.328125 -8.890625 13.097656 -8.234375 12.640625 -7.671875 C 12.179688 -7.109375 11.53125 -6.640625 10.6875 -6.265625 C 10.613281 -6.234375 10.578125 -6.1875 10.578125 -6.125 C 10.578125 -6.0625 10.609375 -6.015625 10.671875 -5.984375 C 11.148438 -5.816406 11.523438 -5.625 11.796875 -5.40625 C 12.078125 -5.1875 12.304688 -4.90625 12.484375 -4.5625 C 12.660156 -4.226562 12.832031 -3.796875 13 -3.265625 C 13.1875 -2.710938 13.359375 -2.289062 13.515625 -2 C 13.679688 -1.71875 13.867188 -1.578125 14.078125 -1.578125 C 14.210938 -1.578125 14.332031 -1.59375 14.4375 -1.625 C 14.539062 -1.65625 14.617188 -1.671875 14.671875 -1.671875 C 14.878906 -1.671875 14.984375 -1.519531 14.984375 -1.21875 C 14.984375 -0.757812 14.722656 -0.40625 14.203125 -0.15625 C 13.691406 0.09375 13.039062 0.21875 12.25 0.21875 C 11.375 0.21875 10.734375 0.09375 10.328125 -0.15625 C 9.921875 -0.414062 9.640625 -0.757812 9.484375 -1.1875 C 9.335938 -1.625 9.222656 -2.125 9.140625 -2.6875 C 8.992188 -3.664062 8.71875 -4.375 8.3125 -4.8125 C 7.914062 -5.25 7.472656 -5.46875 6.984375 -5.46875 L 6.484375 -5.46875 C 6.253906 -5.46875 6.078125 -5.421875 5.953125 -5.328125 C 5.828125 -5.234375 5.765625 -5.019531 5.765625 -4.6875 L 5.765625 -3.71875 C 5.765625 -3.132812 5.828125 -2.703125 5.953125 -2.421875 C 6.085938 -2.140625 6.328125 -1.867188 6.671875 -1.609375 C 6.796875 -1.523438 6.921875 -1.410156 7.046875 -1.265625 C 7.179688 -1.117188 7.25 -0.941406 7.25 -0.734375 C 7.25 -0.523438 7.179688 -0.347656 7.046875 -0.203125 C 6.910156 -0.0546875 6.609375 0.015625 6.140625 0.015625 Z M 6.5625 -7.09375 L 7.015625 -7.09375 C 7.753906 -7.09375 8.289062 -7.273438 8.625 -7.640625 C 8.96875 -8.015625 9.140625 -8.488281 9.140625 -9.0625 C 9.140625 -9.550781 9.050781 -10.015625 8.875 -10.453125 C 8.695312 -10.898438 8.429688 -11.265625 8.078125 -11.546875 C 7.734375 -11.828125 7.304688 -11.96875 6.796875 -11.96875 L 6.390625 -11.96875 C 6.171875 -11.96875 6.007812 -11.925781 5.90625 -11.84375 C 5.8125 -11.769531 5.765625 -11.566406 5.765625 -11.234375 L 5.765625 -8.046875 C 5.765625 -7.660156 5.816406 -7.40625 5.921875 -7.28125 C 6.023438 -7.15625 6.238281 -7.09375 6.5625 -7.09375 Z M 6.5625 -7.09375 "/></g></g></g><g fill="#004d3d" fill-opacity="1"><g transform="translate(279.536846, 21.163248)"><g><path d="M 4.828125 0 C 4.359375 0 4.03125 -0.0507812 3.84375 -0.15625 C 3.65625 -0.257812 3.5625 -0.453125 3.5625 -0.734375 C 3.5625 -0.921875 3.628906 -1.09375 3.765625 -1.25 C 3.898438 -1.40625 4.023438 -1.523438 4.140625 -1.609375 C 4.503906 -1.910156 4.742188 -2.207031 4.859375 -2.5 C 4.972656 -2.789062 5.03125 -3.195312 5.03125 -3.71875 L 5.03125 -4.28125 C 5.03125 -4.601562 4.96875 -4.953125 4.84375 -5.328125 C 4.726562 -5.710938 4.578125 -6.066406 4.390625 -6.390625 L 2.015625 -10.703125 C 1.828125 -11.066406 1.625 -11.328125 1.40625 -11.484375 C 1.195312 -11.648438 0.972656 -11.78125 0.734375 -11.875 C 0.554688 -11.957031 0.40625 -12.054688 0.28125 -12.171875 C 0.15625 -12.296875 0.09375 -12.492188 0.09375 -12.765625 C 0.09375 -13.128906 0.226562 -13.359375 0.5 -13.453125 C 0.769531 -13.554688 1.164062 -13.609375 1.6875 -13.609375 L 5.625 -13.609375 C 6.320312 -13.609375 6.773438 -13.53125 6.984375 -13.375 C 7.203125 -13.226562 7.3125 -13.0625 7.3125 -12.875 C 7.3125 -12.632812 7.25 -12.453125 7.125 -12.328125 C 7.007812 -12.210938 6.882812 -12.101562 6.75 -12 C 6.507812 -11.851562 6.347656 -11.6875 6.265625 -11.5 C 6.191406 -11.3125 6.226562 -11.082031 6.375 -10.8125 L 7.640625 -8.53125 C 7.742188 -8.351562 7.859375 -8.257812 7.984375 -8.25 C 8.117188 -8.238281 8.226562 -8.332031 8.3125 -8.53125 L 9.640625 -11.0625 C 9.796875 -11.351562 9.8125 -11.578125 9.6875 -11.734375 C 9.5625 -11.890625 9.382812 -12.046875 9.15625 -12.203125 C 9 -12.304688 8.898438 -12.40625 8.859375 -12.5 C 8.828125 -12.601562 8.8125 -12.71875 8.8125 -12.84375 C 8.8125 -13.164062 8.914062 -13.375 9.125 -13.46875 C 9.34375 -13.5625 9.648438 -13.609375 10.046875 -13.609375 L 12.453125 -13.609375 C 12.796875 -13.609375 13.070312 -13.550781 13.28125 -13.4375 C 13.488281 -13.332031 13.578125 -13.148438 13.546875 -12.890625 C 13.535156 -12.640625 13.425781 -12.445312 13.21875 -12.3125 C 13.019531 -12.175781 12.832031 -12.054688 12.65625 -11.953125 C 12.457031 -11.847656 12.296875 -11.703125 12.171875 -11.515625 C 12.054688 -11.335938 11.878906 -11.039062 11.640625 -10.625 L 9.328125 -6.609375 C 9.179688 -6.359375 9.0625 -6.035156 8.96875 -5.640625 C 8.875 -5.242188 8.828125 -4.789062 8.828125 -4.28125 L 8.828125 -3.71875 C 8.828125 -3.195312 8.882812 -2.789062 9 -2.5 C 9.113281 -2.207031 9.351562 -1.910156 9.71875 -1.609375 C 9.863281 -1.492188 9.992188 -1.367188 10.109375 -1.234375 C 10.234375 -1.109375 10.296875 -0.941406 10.296875 -0.734375 C 10.296875 -0.523438 10.226562 -0.347656 10.09375 -0.203125 C 9.957031 -0.0546875 9.65625 0.015625 9.1875 0.015625 Z M 4.828125 0 "/></g></g></g><g fill="#004d3d" fill-opacity="1"><g transform="translate(302.846547, 21.163248)"><g><path d="M 6.625 0.15625 C 6.238281 0.15625 5.769531 0.140625 5.21875 0.109375 C 4.664062 0.0859375 4.09375 0.0625 3.5 0.03125 C 2.90625 0.0078125 2.34375 0 1.8125 0 C 1.34375 0 1.015625 -0.0507812 0.828125 -0.15625 C 0.640625 -0.257812 0.546875 -0.453125 0.546875 -0.734375 C 0.546875 -0.921875 0.613281 -1.09375 0.75 -1.25 C 0.882812 -1.40625 1.007812 -1.523438 1.125 -1.609375 C 1.488281 -1.910156 1.726562 -2.207031 1.84375 -2.5 C 1.957031 -2.789062 2.015625 -3.195312 2.015625 -3.71875 L 2.015625 -9.890625 C 2.015625 -10.421875 1.957031 -10.828125 1.84375 -11.109375 C 1.726562 -11.398438 1.484375 -11.695312 1.109375 -12 C 1.003906 -12.101562 0.878906 -12.226562 0.734375 -12.375 C 0.597656 -12.519531 0.53125 -12.6875 0.53125 -12.875 C 0.53125 -13.164062 0.625 -13.359375 0.8125 -13.453125 C 1 -13.554688 1.320312 -13.609375 1.78125 -13.609375 C 2.550781 -13.609375 3.191406 -13.617188 3.703125 -13.640625 C 4.210938 -13.671875 4.675781 -13.695312 5.09375 -13.71875 C 5.507812 -13.75 5.929688 -13.765625 6.359375 -13.765625 C 7.960938 -13.765625 9.390625 -13.503906 10.640625 -12.984375 C 11.898438 -12.460938 12.894531 -11.671875 13.625 -10.609375 C 14.351562 -9.554688 14.71875 -8.222656 14.71875 -6.609375 C 14.71875 -5.054688 14.382812 -3.78125 13.71875 -2.78125 C 13.050781 -1.78125 12.109375 -1.039062 10.890625 -0.5625 C 9.679688 -0.0820312 8.257812 0.15625 6.625 0.15625 Z M 7.171875 -1.609375 C 8.296875 -1.609375 9.140625 -2.066406 9.703125 -2.984375 C 10.265625 -3.910156 10.546875 -5.191406 10.546875 -6.828125 C 10.546875 -7.898438 10.363281 -8.832031 10 -9.625 C 9.644531 -10.425781 9.160156 -11.039062 8.546875 -11.46875 C 7.941406 -11.90625 7.253906 -12.125 6.484375 -12.125 C 6.253906 -12.125 6.082031 -12.066406 5.96875 -11.953125 C 5.851562 -11.847656 5.796875 -11.664062 5.796875 -11.40625 L 5.796875 -2.609375 C 5.796875 -2.179688 5.910156 -1.90625 6.140625 -1.78125 C 6.367188 -1.664062 6.710938 -1.609375 7.171875 -1.609375 Z M 7.171875 -1.609375 "/></g></g></g><g fill="#004d3d" fill-opacity="1"><g transform="translate(327.614318, 21.163248)"><g><path d="M 1.0625 0.015625 C 0.664062 0.015625 0.40625 -0.0546875 0.28125 -0.203125 C 0.15625 -0.347656 0.09375 -0.507812 0.09375 -0.6875 C 0.09375 -0.863281 0.175781 -1.023438 0.34375 -1.171875 C 0.519531 -1.328125 0.707031 -1.445312 0.90625 -1.53125 C 1.257812 -1.675781 1.523438 -1.863281 1.703125 -2.09375 C 1.890625 -2.332031 2.066406 -2.671875 2.234375 -3.109375 C 2.753906 -4.453125 3.269531 -5.796875 3.78125 -7.140625 C 4.300781 -8.484375 4.820312 -9.820312 5.34375 -11.15625 C 5.425781 -11.375 5.4375 -11.597656 5.375 -11.828125 C 5.3125 -12.066406 5.191406 -12.234375 5.015625 -12.328125 C 4.867188 -12.398438 4.753906 -12.492188 4.671875 -12.609375 C 4.585938 -12.734375 4.546875 -12.878906 4.546875 -13.046875 C 4.546875 -13.160156 4.601562 -13.300781 4.71875 -13.46875 C 4.832031 -13.632812 5.085938 -13.71875 5.484375 -13.71875 L 7.25 -13.71875 C 7.945312 -13.71875 8.488281 -13.609375 8.875 -13.390625 C 9.257812 -13.179688 9.546875 -12.925781 9.734375 -12.625 C 9.921875 -12.332031 10.066406 -12.046875 10.171875 -11.765625 C 10.753906 -10.273438 11.332031 -8.78125 11.90625 -7.28125 C 12.476562 -5.789062 13.054688 -4.300781 13.640625 -2.8125 C 13.753906 -2.519531 13.875 -2.296875 14 -2.140625 C 14.125 -1.992188 14.316406 -1.847656 14.578125 -1.703125 C 14.703125 -1.640625 14.828125 -1.539062 14.953125 -1.40625 C 15.078125 -1.269531 15.140625 -1.070312 15.140625 -0.8125 C 15.140625 -0.570312 15.070312 -0.390625 14.9375 -0.265625 C 14.800781 -0.148438 14.640625 -0.078125 14.453125 -0.046875 C 14.265625 -0.015625 14.09375 0 13.9375 0 L 10.5 0 C 9.875 0 9.382812 -0.0234375 9.03125 -0.078125 C 8.675781 -0.140625 8.5 -0.351562 8.5 -0.71875 C 8.5 -0.96875 8.609375 -1.160156 8.828125 -1.296875 C 9.054688 -1.472656 9.222656 -1.65625 9.328125 -1.84375 C 9.441406 -2.03125 9.4375 -2.300781 9.3125 -2.65625 L 9.15625 -3.125 C 9.070312 -3.34375 8.941406 -3.519531 8.765625 -3.65625 C 8.597656 -3.800781 8.414062 -3.875 8.21875 -3.875 L 5.109375 -3.875 C 4.847656 -3.875 4.648438 -3.84375 4.515625 -3.78125 C 4.390625 -3.71875 4.273438 -3.566406 4.171875 -3.328125 L 4.046875 -2.921875 C 3.890625 -2.460938 3.835938 -2.113281 3.890625 -1.875 C 3.941406 -1.632812 4.101562 -1.460938 4.375 -1.359375 C 4.53125 -1.304688 4.675781 -1.222656 4.8125 -1.109375 C 4.945312 -1.003906 5.015625 -0.851562 5.015625 -0.65625 C 5.015625 -0.375 4.898438 -0.191406 4.671875 -0.109375 C 4.441406 -0.0234375 4.203125 0.015625 3.953125 0.015625 Z M 5.765625 -5.515625 L 7.625 -5.515625 C 7.800781 -5.515625 7.957031 -5.554688 8.09375 -5.640625 C 8.238281 -5.722656 8.285156 -5.832031 8.234375 -5.96875 L 7.015625 -9.734375 C 6.953125 -9.953125 6.859375 -10.0625 6.734375 -10.0625 C 6.617188 -10.0625 6.523438 -9.953125 6.453125 -9.734375 L 5.109375 -5.984375 C 5.046875 -5.804688 5.097656 -5.679688 5.265625 -5.609375 C 5.429688 -5.546875 5.597656 -5.515625 5.765625 -5.515625 Z M 5.765625 -5.515625 "/></g></g></g><g fill="#004d3d" fill-opacity="1"><g transform="translate(352.518182, 21.163248)"><g><path d="M 4.828125 0 C 4.359375 0 4.03125 -0.0507812 3.84375 -0.15625 C 3.65625 -0.257812 3.5625 -0.453125 3.5625 -0.734375 C 3.5625 -0.921875 3.628906 -1.09375 3.765625 -1.25 C 3.898438 -1.40625 4.023438 -1.523438 4.140625 -1.609375 C 4.503906 -1.910156 4.742188 -2.207031 4.859375 -2.5 C 4.972656 -2.789062 5.03125 -3.195312 5.03125 -3.71875 L 5.03125 -4.28125 C 5.03125 -4.601562 4.96875 -4.953125 4.84375 -5.328125 C 4.726562 -5.710938 4.578125 -6.066406 4.390625 -6.390625 L 2.015625 -10.703125 C 1.828125 -11.066406 1.625 -11.328125 1.40625 -11.484375 C 1.195312 -11.648438 0.972656 -11.78125 0.734375 -11.875 C 0.554688 -11.957031 0.40625 -12.054688 0.28125 -12.171875 C 0.15625 -12.296875 0.09375 -12.492188 0.09375 -12.765625 C 0.09375 -13.128906 0.226562 -13.359375 0.5 -13.453125 C 0.769531 -13.554688 1.164062 -13.609375 1.6875 -13.609375 L 5.625 -13.609375 C 6.320312 -13.609375 6.773438 -13.53125 6.984375 -13.375 C 7.203125 -13.226562 7.3125 -13.0625 7.3125 -12.875 C 7.3125 -12.632812 7.25 -12.453125 7.125 -12.328125 C 7.007812 -12.210938 6.882812 -12.101562 6.75 -12 C 6.507812 -11.851562 6.347656 -11.6875 6.265625 -11.5 C 6.191406 -11.3125 6.226562 -11.082031 6.375 -10.8125 L 7.640625 -8.53125 C 7.742188 -8.351562 7.859375 -8.257812 7.984375 -8.25 C 8.117188 -8.238281 8.226562 -8.332031 8.3125 -8.53125 L 9.640625 -11.0625 C 9.796875 -11.351562 9.8125 -11.578125 9.6875 -11.734375 C 9.5625 -11.890625 9.382812 -12.046875 9.15625 -12.203125 C 9 -12.304688 8.898438 -12.40625 8.859375 -12.5 C 8.828125 -12.601562 8.8125 -12.71875 8.8125 -12.84375 C 8.8125 -13.164062 8.914062 -13.375 9.125 -13.46875 C 9.34375 -13.5625 9.648438 -13.609375 10.046875 -13.609375 L 12.453125 -13.609375 C 12.796875 -13.609375 13.070312 -13.550781 13.28125 -13.4375 C 13.488281 -13.332031 13.578125 -13.148438 13.546875 -12.890625 C 13.535156 -12.640625 13.425781 -12.445312 13.21875 -12.3125 C 13.019531 -12.175781 12.832031 -12.054688 12.65625 -11.953125 C 12.457031 -11.847656 12.296875 -11.703125 12.171875 -11.515625 C 12.054688 -11.335938 11.878906 -11.039062 11.640625 -10.625 L 9.328125 -6.609375 C 9.179688 -6.359375 9.0625 -6.035156 8.96875 -5.640625 C 8.875 -5.242188 8.828125 -4.789062 8.828125 -4.28125 L 8.828125 -3.71875 C 8.828125 -3.195312 8.882812 -2.789062 9 -2.5 C 9.113281 -2.207031 9.351562 -1.910156 9.71875 -1.609375 C 9.863281 -1.492188 9.992188 -1.367188 10.109375 -1.234375 C 10.234375 -1.109375 10.296875 -0.941406 10.296875 -0.734375 C 10.296875 -0.523438 10.226562 -0.347656 10.09375 -0.203125 C 9.957031 -0.0546875 9.65625 0.015625 9.1875 0.015625 Z M 4.828125 0 "/></g></g></g></g></g></svg>